<?xml version="1.0" encoding="UTF-8" standalone="no"?>
<!-- Created with Inkscape (http://www.inkscape.org/) -->

<svg
   xmlns:dc="http://purl.org/dc/elements/1.1/"
   xmlns:cc="http://creativecommons.org/ns#"
   xmlns:rdf="http://www.w3.org/1999/02/22-rdf-syntax-ns#"
   xmlns:svg="http://www.w3.org/2000/svg"
   xmlns="http://www.w3.org/2000/svg"
   xmlns:sodipodi="http://sodipodi.sourceforge.net/DTD/sodipodi-0.dtd"
   xmlns:inkscape="http://www.inkscape.org/namespaces/inkscape"
   id="svg3376"
   version="1.1"
   inkscape:version="0.91 r13725"
   width="529.6875"
   height="518.4375"
   viewBox="0 0 529.6875 518.4375"
   sodipodi:docname="DecoratedTypography17.svg">
  <metadata
     id="metadata3382">
    <rdf:RDF>
      <cc:Work
         rdf:about="">
        <dc:format>image/svg+xml</dc:format>
        <dc:type
           rdf:resource="http://purl.org/dc/dcmitype/StillImage" />
        <dc:title></dc:title>
      </cc:Work>
    </rdf:RDF>
  </metadata>
  <defs
     id="defs3380" />
  <sodipodi:namedview
     pagecolor="#ffffff"
     bordercolor="#666666"
     borderopacity="1"
     objecttolerance="10"
     gridtolerance="10"
     guidetolerance="10"
     inkscape:pageopacity="0"
     inkscape:pageshadow="2"
     inkscape:window-width="1600"
     inkscape:window-height="837"
     id="namedview3378"
     showgrid="false"
     inkscape:zoom="1.2923448"
     inkscape:cx="264.84375"
     inkscape:cy="259.21875"
     inkscape:window-x="-8"
     inkscape:window-y="-8"
     inkscape:window-maximized="1"
     inkscape:current-layer="svg3376" />
  <path
     style="fill:#000000"
     d="M 15.682641,517.76379 C 8.5493829,516.68694 7.8916512,503.28976 8.1904059,365.15625 8.2383593,342.98437 8.1074594,318.9375 7.8995175,311.71875 7.6915756,304.5 7.372477,282.5625 7.1904094,262.96875 6.801182,221.08087 4.9504058,132.61207 3.8758806,104.53125 3.4615376,93.703125 3.3009398,77.460937 3.5189968,68.4375 3.7370537,59.414062 3.4693318,48.65625 2.9240592,44.53125 0.73694868,27.985706 -0.23083576,9.3831122 0.9475095,6.5383348 2.4744272,2.8520295 2.2240792,2.8923254 27.205745,2.3118225 39.312898,2.0304867 55.96875,1.5007035 64.21875,1.1345264 c 8.25,-0.36617701 25.125,-0.36016874 37.5,0.013352 12.375,0.3735205 91.47656,0.5903055 175.78125,0.4817446 227.5662,-0.293042 253.87913,0.3145583 251.66274,5.8112246 -1.55143,3.8475595 -1.76805,78.6778375 -1.27477,440.3805425 0.0952,69.83516 1.24078,64.15988 -13.20047,65.39786 -6.90562,0.592 -112.81218,1.9656 -135,1.75095 -12.49511,-0.12088 -48.75935,0.38206 -150.46875,2.08683 -33.45851,0.5608 -210.618788,1.14717 -213.536109,0.70676 z m 165.829409,-15.7248 c 37.69881,-0.11379 69.05757,-0.52474 69.68613,-0.91321 1.11511,-0.68918 20.50441,-1.34438 47.86432,-1.61742 7.47656,-0.0746 22.24219,0.29505 32.8125,0.82147 26.46206,1.31786 82.91773,0.83914 116.71875,-0.98974 17.62929,-0.95387 33.23181,-1.29654 41.80955,-0.91825 7.5265,0.33192 14.80171,0.32311 16.16713,-0.0196 l 2.48257,-0.62309 -0.086,-16.62395 c -0.0473,-9.14318 0.3564,-18.78924 0.8971,-21.43569 0.66652,-3.26237 0.68,-5.90935 0.0418,-8.22054 -0.61845,-2.23983 -0.72251,-28.72089 -0.30346,-77.21953 0.35077,-40.59588 0.74981,-106.29507 0.88675,-145.9982 0.13695,-39.70312 0.52501,-101.59847 0.86237,-137.545202 0.61477,-65.506079 0.41503,-71.227769 -2.57304,-73.707642 -1.4392,-1.194451 -21.7679,-1.80645 -83.15356,-2.503347 C 350.26869,13.669548 321.02141,13.112973 298.59375,12.107647 275.24804,11.061171 253.96107,10.995922 200.15625,11.805915 155.09887,12.484223 155.28459,12.485273 135,11.437399 115.59805,10.43512 93.510375,9.9673331 75.9375,10.186534 l -11.71875,0.146177 4.008741,3.833569 c 2.204807,2.108463 4.641422,5.057041 5.414701,6.552395 1.727531,3.340677 1.675979,3.34081 8.473694,-0.02188 10.118289,-5.005307 25.530614,-8.066756 33.497424,-6.653808 18.6082,3.300244 30.20758,7.688001 35.66952,13.492896 6.67682,7.096061 9.88518,12.07844 11.83535,18.379599 1.59165,5.142718 2.48461,6.680171 4.0698,7.007182 4.89659,1.01012 15.85472,1.700686 24.18304,1.523981 19.76734,-0.419412 24.84125,7.4761 9.0894,14.144033 C 187.83201,73.93643 165,92.508636 165,97.4352 c 0,0.472144 -1.00645,2.054541 -2.23657,3.51644 -7.32851,8.70945 -10.56391,24.18251 -11.3549,54.30398 l -0.66732,25.41186 2.20752,0.59096 c 1.21414,0.32503 3.59827,0.59672 5.29807,0.60376 3.17228,0.0131 15.2586,6.39524 19.95272,10.5359 9.616,8.48224 14.78902,28.52095 10.86017,42.06904 -0.8077,2.78525 -2.09479,7.38442 -2.86017,10.22036 -0.7654,2.83594 -2.26246,7.47061 -3.32682,10.29926 -3.0592,8.13018 -3.03193,8.13911 8.06693,2.63941 9.2508,-4.58395 9.48703,-4.90788 9.43596,-12.93867 -0.0444,-6.98697 1.62584,-11.63348 6.20853,-17.27147 7.01485,-8.63018 3.28481,-13.56537 -10.31194,-13.64366 -8.56631,-0.0493 -4.99999,-11.48571 5.68626,-18.23457 6.0184,-3.80091 21.21885,-5.64726 27.33821,-3.32068 14.2128,5.4037 24.96734,18.87999 25.56825,32.03908 0.34637,7.58516 0.97344,8.78243 2.72189,5.19692 3.87786,-7.95224 3.23852,-24.45501 -1.38431,-35.73172 -3.425,-8.35483 -3.73276,-13.518 -1.20812,-20.26882 2.57303,-6.88021 2.17692,-11.81428 -1.3161,-16.39387 -6.73346,-8.82802 2.31702,-12.13623 16.6075,-6.07055 12.72977,5.40324 20.38356,17.09097 20.32094,31.03113 -0.0269,5.99677 -2.53791,23.85757 -3.87314,27.55009 -3.15859,8.73492 2.23514,4.01924 6.94431,-6.07134 6.6415,-14.23107 8.72189,-26.70415 6.2346,-37.37977 -5.66528,-24.3157 -12.27008,-32.05577 -27.35401,-32.05577 -8.53437,0 -20.37096,7.09855 -20.37096,12.21672 0,1.14432 -13.07834,7.23697 -20.02958,9.33092 -13.03048,3.92523 -18.72555,3.47239 -27.05562,-2.15136 -6.36198,-4.29505 -6.15293,-6.81301 0.91332,-11.00059 3.10917,-1.84255 4.39726,-6.39629 1.875,-6.62864 -7.68305,-0.7078 -12.88215,3.72242 -18.96483,16.16014 -1.86041,3.80411 -3.90767,7.97125 -4.54949,9.26031 -2.2955,4.61039 -7.12948,3.31187 -10.47005,-2.8125 -5.98789,-10.9778 -2.89878,-29.56162 6.7313,-40.49486 5.50529,-6.25029 6.09905,-6.84012 14.65551,-14.55851 13.62327,-12.288906 35.99863,-17.336957 57.22088,-12.909458 15.68324,3.271922 15.66885,0.267912 -0.0383,-7.990323 -11.7724,-6.18952 -18.67217,-13.140329 -19.52737,-19.671849 -1.35534,-10.351235 -4.97737,-15.11238 -12.45823,-16.376263 -10.87133,-1.8367 -7.04372,-12.783917 6.80206,-19.454314 3.12218,-1.504158 7.3642,-3.655271 9.4267,-4.780252 6.05895,-3.304829 25.10002,-3.023698 32.57849,0.481005 16.57868,7.769409 19.92151,13.952605 19.92151,36.848574 0,15.9375 0.19737,18.207237 1.875,21.5625 2.58228,5.164556 3.25866,4.581954 5.67152,-4.885194 7.52586,-29.528508 20.87619,-44.246162 45.34688,-49.991198 43.45733,-10.202568 72.3166,21.056559 47.70946,51.676846 -7.34724,9.142661 -14.47355,8.769319 -13.50263,-0.707392 1.38053,-13.474881 -6.12962,-14.477151 -11.61837,-1.550534 -3.29606,7.762562 -10.46504,11.538271 -21.95675,11.564024 -10.46746,0.02346 -12.5068,1.895438 -9.12762,8.378545 4.14092,7.944513 4.31396,10.810433 1.06013,17.557043 l -2.9402,6.09634 2.50639,5.89733 c 2.64117,6.21444 2.82078,11.51981 0.65947,19.47981 -1.22445,4.50958 -0.51864,4.45872 6.50603,-0.46875 13.93395,-9.77399 22.69334,-12.76958 43.43569,-14.85443 18.10372,-1.81964 20.12393,-2.59554 20.17684,-7.74942 0.11824,-11.51699 10.69324,-15.51073 25.32641,-9.56475 11.71859,4.76169 22.99049,-1.87415 11.68118,-6.87679 -3.21557,-1.4224 -4.53021,-2.78338 -6.56483,-6.796274 -5.99287,-11.819731 -6.02088,-15.685105 -0.12773,-17.630017 8.95765,-2.956293 5.41514,-9.418939 -5.16301,-9.418939 -8.11122,0 -0.50238,-11.213284 11.15551,-16.440098 5.55439,-2.490309 5.8815,-3.310509 2.62074,-6.571266 -5.62468,-5.624682 -18.66504,-1.208338 -27.1158,9.183239 -8.4675,10.412155 -10.17332,0.851171 -2.67939,-15.017799 12.69019,-26.872488 62.35865,-24.623375 81.35068,3.683763 26.92644,40.133186 1.03203,90.615221 -50.6606,98.764591 -17.87942,2.81871 -17.83341,3.35034 0.72999,8.43544 8.2329,2.25524 9.63986,2.39794 13.80097,1.3997 11.50925,-2.76103 18.0759,1.2803 20.63498,12.69943 1.41426,6.3107 4.02673,9.59822 8.2322,10.35933 9.95054,1.80089 14.54012,10.12033 11.06988,20.06617 -2.10113,6.0219 -1.93128,6.87949 2.25073,11.36429 8.6263,9.25087 -0.74749,25.34816 -13.36553,22.95218 -9.30799,-1.76745 -10.43585,-14.07515 -2.2262,-24.29318 3.22702,-4.01647 2.56384,-5.29492 -2.76048,-5.32144 -5.613,-0.0279 -10.17853,-8.85018 -8.09433,-15.64115 1.59274,-5.18961 0.25245,-6.8732 -5.47166,-6.8732 -9.52917,0 -15.06795,-4.4645 -16.16314,-13.0282 -0.64257,-5.02447 -2.48319,-6.87792 -8.81357,-8.87496 -11.66226,-3.67911 -12.37738,-0.85187 -1.8214,7.20099 4.6364,3.53698 14.22448,18.29468 16.49799,25.39323 1.00675,3.14336 2.52185,7.61363 3.3669,9.93394 10.65969,29.26892 -14.41687,60 -48.95999,60 -20.06492,0 -28.94335,-9.81319 -9.21984,-10.19057 9.11888,-0.17447 14.7999,-3.88424 7.96875,-5.20369 -1.54687,-0.29879 -4.07812,-0.78769 -5.625,-1.08648 -3.59217,-0.69384 -3.86576,-4.61695 -0.59454,-8.52545 17.12991,-20.46713 2.43504,-62.55674 -22.02535,-63.0858 -0.83937,-0.0182 -3.04066,-0.66582 -4.89176,-1.43926 -7.03436,-2.93915 -21.29524,-1.93927 -29.54962,2.07183 -6.88136,3.34389 -7.03757,3.49103 -4.04937,3.81396 1.70947,0.18474 3.75978,-0.20493 4.55625,-0.86595 2.67057,-2.21638 21.16303,-1.58421 29.36689,1.00392 21.25403,6.70515 32.69939,22.73815 16.49452,23.106 -8.82028,0.20021 -10.30221,4.91068 -3.0514,9.69918 9.85936,6.51122 -4.02554,14.56403 -25.16187,14.59309 l -11.25,0.0155 -8.72745,-4.16625 c -11.95853,-5.70868 -19.73009,-3.88804 -38.6163,9.04666 -3.35156,2.2954 -10.18408,6.90773 -15.18337,10.24962 -9.52171,6.36501 -11.46963,9.58498 -5.07634,8.39137 13.714,-2.56039 31.28345,-2.60581 39.5367,-0.10222 2.54609,0.77235 5.76452,1.40884 7.15205,1.41443 1.38754,0.006 2.75465,0.38528 3.03802,0.84378 0.28338,0.45851 1.62032,1.11101 2.97099,1.45001 1.35067,0.339 6.87532,2.70604 12.27699,5.2601 5.40168,2.55406 9.97473,4.64375 10.16235,4.64375 0.18761,0 2.21642,1.26562 4.50844,2.8125 2.29204,1.54687 4.58343,2.8125 5.09199,2.8125 0.50855,0 1.99801,1.40726 3.3099,3.12725 1.33503,1.7503 4.17032,3.80974 6.4394,4.67732 3.13977,1.20048 4.54575,2.4784 6.23387,5.66608 l 2.17975,4.116 4.29738,-1.29333 c 8.5332,-2.56811 15.20788,-1.21839 17.68752,3.5767 1.79065,3.46274 2.17439,3.36622 6.31632,-1.58886 5.83521,-6.98078 17.30633,-10.32929 26.93317,-7.86201 4.00256,1.02582 4.59359,0.92823 8.60113,-1.42035 7.16531,-4.19916 12.89874,-5.09372 12.89874,-2.01255 0,0.63835 0.90313,1.96432 2.00697,2.94657 l 2.00696,1.78593 -0.47632,-6.09375 c -0.26198,-3.35156 -1.2562,-8.56406 -2.20937,-11.58333 -4.61786,-14.62754 9.86317,-5.72545 16.26161,9.9967 8.42984,20.71367 -2.46304,48.49164 -24.14814,61.58022 -15.25258,9.20607 -37.46445,9.04834 -56.72296,-0.40279 -8.95347,-4.39392 -11.17938,-5.17583 -11.51208,-4.04393 -0.64019,2.17804 0.28972,3.831 4.94958,8.7982 2.83594,3.02297 5.15625,5.79298 5.15625,6.15558 0,1.0761 8.17594,6.37435 9.83651,6.37435 0.84147,0 3.60841,-0.67984 6.14877,-1.51074 5.79225,-1.89456 12.45834,0.73988 15.06255,5.95271 2.47292,4.95005 3.39652,5.58527 9.03879,6.21656 2.96017,0.33121 7.29317,1.07761 9.62887,1.65867 3.78164,0.94077 4.69844,0.82604 8.37084,-1.04747 3.51519,-1.79332 5.03361,-2.01856 10.2845,-1.52557 7.51982,0.70601 8.47445,0.14815 9.54408,-5.5773 1.17426,-6.28548 2.97177,-8.64729 7.15612,-9.40269 6.06525,-1.09498 6.80397,-1.84242 6.80397,-6.88435 0,-5.19737 -0.74642,-5.79102 -6.33821,-5.041 -7.78043,1.04357 -11.15389,-11.02885 -3.73943,-13.38211 10.80042,-3.42792 16.37772,5.95435 16.76328,28.19954 0.25942,14.96747 -1.33465,17.34375 -11.63464,17.34375 -12.48005,0 -21.58611,4.87517 -28.01768,15 -2.97373,4.68138 -8.21251,11.76067 -20.46604,27.65625 -5.92453,7.68546 -6.16736,8.5801 -2.80136,10.32073 1.52015,0.7861 4.05142,2.68787 5.62506,4.22615 3.63999,3.55819 5.46784,3.516 10.8297,-0.25001 4.20485,-2.95335 4.60853,-3.04202 13.15241,-2.88893 11.01407,0.19736 11.33478,-0.89575 1.89619,-6.46298 -7.61559,-4.49197 -4.77398,-9.16371 5.57386,-9.16371 17.2444,0 32.08602,27.53508 25.91638,48.08165 -10.19163,33.94082 -48.357,36.54668 -80.71383,5.51097 -9.78247,-9.38305 -10.93179,-9.68497 -14.87382,-3.90708 -2.87834,4.21883 -2.68267,5.24153 1.50908,7.88767 20.14207,12.71512 21.94496,33.79727 3.12656,36.5604 -15.85165,2.3275 -20.22347,-19.83498 -4.49242,-22.77386 13.49628,-2.52138 -1.60384,-11.03921 -21.94009,-12.3762 -24.92775,-1.63884 -34.6875,-1.10542 -34.6875,1.89583 0,3.72799 4.52592,4.34124 17.39602,2.3571 9.27996,-1.43067 11.81657,18.38055 3.04248,23.76205 -19.89642,12.20324 -42.14512,3.40177 -51.02294,-20.1844 -3.10584,-8.25149 -1.21318,-7.72082 -27.59575,-7.73728 -26.55783,-0.0166 -25.70816,-0.2715 -27.02918,8.11009 -5.61525,35.62741 -71.89661,35.06698 -82.67319,-0.69903 -2.64371,-8.77411 -0.38477,-8.03514 -23.59006,-7.71696 -21.84818,0.29957 -22.27738,0.41638 -22.27738,6.06297 0,2.74677 -2.05062,9.53742 -4.40759,14.59574 -8.16879,17.53119 -49.860593,20.09035 -65.967782,4.04929 -10.600477,-10.55697 -10.318365,-25.91884 0.380867,-20.73942 5.271356,2.55181 7.736514,2.45783 10.381149,-0.39578 2.776936,-2.99636 5.514759,-2.97488 8.33386,0.0653 6.070744,6.54708 22.216996,4.50797 22.216996,-2.80573 0,-1.83151 3.56191,-1.69333 -40.3125,-1.56389 -40.17882,0.11855 -41.453687,-0.027 -42.009389,-4.79582 -0.583329,-5.00591 2.067288,-7.99439 8.967983,-10.11108 3.477461,-1.06666 8.690862,-3.39347 11.585336,-5.1707 2.894474,-1.77722 7.240607,-4.07916 9.658075,-5.1154 15.971845,-6.84633 27.044261,-26.88148 16.25112,-29.40582 -12.518848,-2.92796 -19.676808,-0.85376 -23.664384,6.85737 -7.314361,14.1444 -15.296367,7.85422 -19.610849,-15.45427 -4.309341,-23.2807 -4.208527,-24.03297 4.36274,-32.55432 6.662017,-6.62322 11.061675,-14.62171 13.291918,-24.16443 4.929223,-21.09106 5.219585,-24.09128 2.874703,-29.70337 -0.77976,-1.86623 -3.148718,-5.27102 -5.264352,-7.56622 -4.259403,-4.6209 -4.047176,-2.69169 -2.156124,-19.5999 0.866453,-7.7471 0.200875,-9.79612 -5.074107,-15.62094 C 30.692987,262.11243 26.25,254.18521 26.25,250.09196 c 0,-5.89101 1.7887,-12.87693 4.20905,-16.4388 l 2.375204,-3.49543 -4.205902,-3.86167 C 17.628447,216.1964 21.381476,210 38.498531,210 c 10.389308,0 10.319204,0.0628 7.091633,-6.35929 -1.222286,-2.43208 -2.530016,-5.47665 -2.906067,-6.76571 -0.376052,-1.28906 -3.018383,-7.04582 -5.871848,-12.7928 -8.226689,-16.56884 -12.038588,-36.3899 -10.971786,-57.05095 0.37273,-7.21875 0.735924,-18.82031 0.807099,-25.78125 0.07118,-6.960938 0.488851,-17.71875 0.92817,-23.90625 l 0.798762,-11.25 -3.108638,-7.03125 C 22.258132,52.259504 22.164187,51.673043 22.371925,40.996882 L 22.586633,29.962514 19.765192,28.343228 C 4.9797534,19.857552 26.31245,13.214832 42.293775,21.328125 c 7.704309,3.911272 10.040342,6.656247 12.605824,14.812583 2.100214,6.677123 2.891105,7.037534 6.588885,3.002558 6.406026,-6.990186 6.225822,-13.587215 -0.38291,-14.017734 -6.612278,-0.43075 -8.328414,-10.061198 -2.299927,-12.90651 l 2.600603,-1.227427 -2.8125,-0.832561 c -5.240792,-1.5513871 -37.347674,0.105432 -42.891097,2.21332 l -2.578597,0.980513 0.05026,39.026691 c 0.02764,21.464681 0.475795,48.729822 0.995893,60.589192 0.5201,11.85938 1.138135,36.11719 1.373411,53.90625 0.235276,17.78906 0.687652,32.97656 1.005282,33.75 0.733544,1.7862 1.331568,102.79977 1.266424,213.91435 -0.0323,55.08192 0.279032,86.14919 0.866942,86.51254 0.504533,0.31181 12.855078,0.59921 27.445657,0.63866 14.59058,0.0395 31.590826,0.40635 37.778326,0.81535 6.1875,0.409 15.257812,0.51782 20.15625,0.24182 4.89844,-0.276 39.75073,-0.59492 77.44955,-0.70873 z m -72.56361,-14.37727 c 9.91821,-3.52066 15.354,-10.31735 15.87484,-19.84922 l 0.33297,-6.09375 -3.05871,-0.29466 c -3.56034,-0.34298 -6.64088,2.3573 -10.68703,9.36782 -5.02314,8.7033 -18.513436,10.93253 -25.832969,4.26882 -2.264735,-2.06181 -11.257182,-1.04577 -15.006117,1.69552 -8.156588,5.96424 25.418779,15.50524 38.377016,10.90547 z m 303.94447,-1.70837 c 0.79562,-2.07338 -1.12185,-5.01585 -3.26861,-5.01585 -2.88114,0 -3.99578,3.82656 -1.69308,5.81237 2.01777,1.74011 4.11765,1.403 4.96169,-0.79652 z m -169.84604,-3.80437 c 9.88254,-5.07649 11.17927,-7.76786 3.75,-7.78314 -2.74755,-0.006 -6.35192,-0.89315 -9.41078,-2.3172 l -4.95767,-2.30804 -5.25411,1.96582 c -9.51207,3.55891 -14.53107,2.19195 -27.38538,-7.45868 -7.95292,-5.97081 -11.92896,-2.15025 -7.28979,7.00472 8.04648,15.87896 31.15198,20.8598 50.54773,10.89652 z m 115.09112,2.26765 c 9.94555,-5.25933 9.804,-10.11051 -0.2858,-9.79546 -7.82012,0.24418 -11.52207,-1.52716 -18.35727,-8.78375 -3.25091,-3.45131 -3.9074,-3.74792 -7.69636,-3.47717 l -4.14231,0.296 -0.29134,4.59019 c -0.88702,13.97545 17.4581,24.21132 30.77308,17.17019 z m 119.2761,-18.49514 c 14.24656,-3.65403 23.12416,-25.0826 16.12364,-38.9189 -3.92622,-7.76002 -6.0318,-8.49464 -6.05832,-2.1137 -0.052,12.52903 -6.14439,16.6332 -11.80963,7.95569 -5.77003,-8.83802 -8.81277,-9.32215 -15.43134,-2.45524 -6.09114,6.31968 -9.88662,5.58181 -22.26445,-4.32842 -5.9466,-4.76111 -5.7725,-4.8409 -16.04885,7.35547 -4.51872,5.36299 -4.66747,7.02091 -1.0942,12.19594 12.22843,17.71 34.93762,25.86092 56.58315,20.30916 z m -250.09611,-1.51892 c 1.01706,-0.70267 2.59909,-1.27757 3.51562,-1.27757 0.91652,0 1.6664,-0.42188 1.6664,-0.9375 0,-0.51563 -1.37109,-0.94003 -3.04688,-0.94312 -1.67578,-0.003 -6.42187,-0.23903 -10.54687,-0.5243 -8.80129,-0.60868 -11.19252,0.29815 -8.53361,3.23622 2.62933,2.90537 12.99089,3.17825 16.94534,0.44627 z m 26.14934,0.52939 c 4.33823,-3.41246 1.65186,-5.11393 -6.34382,-4.01799 -4.78624,0.65603 -5.18953,1.3325 -2.436,4.08603 2.40996,2.40996 5.66159,2.38476 8.77982,-0.0681 z M 254.9147,447.313 c 71.46097,0.11007 131.56657,0.20982 133.56798,0.22169 3.9547,0.0234 3.74317,0.21278 10.89232,-9.74817 2.32031,-3.23289 5.3931,-7.18632 6.82841,-8.78539 1.43532,-1.59905 6.88587,-8.18082 12.11234,-14.62613 5.22648,-6.44531 13.01697,-15.35583 17.31222,-19.80115 13.083,-13.54013 9.07683,-14.02108 -9.06547,-1.08834 -3.39457,2.41981 -11.63704,7.35266 -13.44528,8.04654 -0.85245,0.32712 -3.97678,2.17565 -6.94294,4.10785 -39.50435,25.73367 -63.65303,31.97699 -125.39303,32.4187 -27.25063,0.19496 -42.92112,-0.14713 -77.34375,-1.68839 -40.22896,-1.80124 -61.76709,-18.99199 -66.9062,-53.40146 -3.6504,-24.44166 -3.51519,-16.85533 -3.68427,-206.71875 -0.0499,-55.96679 0.32151,-61.03155 5.18305,-70.69009 1.01291,-2.01235 2.42111,-5.30119 3.12933,-7.308523 2.60855,-7.393393 10.26494,-16.93829 18.31132,-22.827913 19.76717,-14.468776 21.48591,-13.666541 -28.26459,-13.192609 -20.85869,0.198703 -44.217338,-0.02559 -51.908109,-0.498448 -14.141643,-0.869468 -18.926016,-0.157816 -13.30545,1.979118 13.76058,5.231763 28.847741,25.086452 32.799013,43.163465 2.369226,10.83918 2.523816,14.66947 2.883616,71.44644 0.19511,30.78773 0.60738,56.38647 0.91617,56.88609 1.36321,2.20574 0.6876,106.37835 -0.74855,115.41747 -0.77827,4.89844 -2.101858,14.17969 -2.941314,20.625 -1.724166,13.23825 -2.657391,16.85031 -8.114227,31.40625 -6.062723,16.17213 -18.291753,32.23242 -28.813367,37.84039 -12.692245,6.76489 -8.346718,7.77372 30.753275,7.13951 17.742153,-0.28778 90.726523,-0.4332 162.187503,-0.32315 z m 55.86655,-18.04704 C 325.30837,428.30482 330,427.16985 330,424.61671 c 0,-1.52631 10.49353,-17.10051 12.71546,-18.87193 1.87042,-1.49118 7.8151,-12.6432 9.26296,-17.37701 1.16116,-3.79641 -0.56208,-4.44675 -2.6592,-1.00359 -3.58046,5.87861 -17.56173,19.43094 -22.55693,21.8649 -23.12688,11.26883 -42.10227,12.60087 -58.89811,4.13459 -11.78783,-5.9419 -15.5426,-9.48847 -23.11826,-21.83636 -6.96034,-11.34499 -7.42877,-38.97162 -0.72499,-42.75806 5.03274,-2.8426 7.68706,0.87734 7.75211,10.8643 0.11898,18.26486 14.63663,33.15077 29.94571,30.7053 6.79366,-1.08522 6.79837,-1.9373 0.0462,-8.36528 -8.7869,-8.36504 -8.44464,-13.71458 1.19093,-18.61442 2.51388,-1.27835 5.66176,-3.97362 7.37065,-6.31085 10.10489,-13.82048 9.67173,-13.46735 23.43425,-19.10521 8.58375,-3.51637 8.83062,-13.56809 0.33322,-13.56809 -13.08745,0 -19.14074,-18.90977 -7.97771,-24.92146 6.4461,-3.47146 5.86876,-4.95514 -4.07858,-10.48147 -12.33674,-6.85379 -21.67188,-10.53457 -26.7176,-10.53457 -1.31834,0 -2.67469,-0.44935 -3.01412,-0.99857 -0.83361,-1.3488 -4.18101,1.71753 -4.18101,3.82994 0,0.8818 0.84049,2.67178 1.86776,3.97774 4.70844,5.98581 5.96888,21.96202 2.37359,30.08534 -7.02216,15.86613 -15.43343,22.60963 -17.89775,14.34901 -2.92897,-9.81813 -8.30457,-13.23434 -22.43735,-14.259 -15.93646,-1.15542 -22.53406,-7.16429 -24.26883,-22.10324 L 206.79641,285 l -2.93894,0 c -8.06554,0 -33.78425,12.88571 -31.09207,15.57789 0.31152,0.31153 3.43784,1.16343 6.94737,1.89313 12.94022,2.69051 16.7693,5.00566 27.05396,16.35756 7.69036,8.48837 16.41458,25.29049 17.48332,33.67142 3.52145,27.61489 1.62889,43.6697 -7.75011,65.74502 -3.23755,7.62023 -3.18302,9.86799 0.25679,10.58408 9.41339,1.95966 66.96674,2.22705 94.02452,0.43686 z m 32.54868,-4.34409 c 0.78815,-0.90234 1.96621,-3.32812 2.61787,-5.39062 1.59739,-5.05563 6.36088,-14.56399 8.45402,-16.875 1.90316,-2.10125 5.14362,-9.6733 4.44057,-10.37636 -0.25015,-0.25015 -1.88499,1.24957 -3.63298,3.33271 -1.74799,2.08314 -4.71289,5.57484 -6.58866,7.75934 -3.45788,4.02698 -8.88346,13.26487 -11.55545,19.67493 l -1.46546,3.51563 3.14853,0 c 1.82768,0 3.7497,-0.68826 4.58156,-1.64063 z M 196.87325,412.656 c 2.70742,-6.01549 5.3235,-12.20287 5.81349,-13.74975 3.79029,-11.9656 6.63913,-23.38835 7.01439,-28.125 l 0.44563,-5.625 -6.22409,6.77608 c -6.55556,7.13694 -8.16246,7.95882 -18.05708,9.23572 -7.94908,1.02582 -9.84305,-1.83324 -4.925,-7.43459 6.18809,-7.04784 6.38096,-13.86643 0.25595,-9.04849 -6.66923,5.24601 -12.30238,2.53626 -24.37556,-11.72553 -4.48201,-5.29451 -5.86774,-4.84728 -5.83845,1.88431 0.0269,6.18707 2.99819,25.58535 4.81055,31.40625 6.74611,21.6671 10.46442,26.69828 25.45007,34.43623 9.69686,5.00704 9.78204,4.96328 15.6301,-8.03023 z m 7.42954,8.66209 c 5.82989,-9.88092 11.31763,-28.52287 10.46118,-35.53684 l -0.57237,-4.6875 -3.12529,9.84375 c -1.7189,5.41406 -3.74376,11.74219 -4.4997,14.0625 -1.63804,5.02793 -7.16477,15.16693 -9.17837,16.83807 -1.94281,1.61239 -0.9608,2.84943 2.26198,2.84943 2.06475,0 3.1121,-0.75849 4.65257,-3.36941 z m 162.79883,-2.81416 c 4.26844,-1.78347 4.48945,-2.45621 3.14606,-9.57639 -2.13772,-11.33025 -3.77276,-10.77982 -9.90906,3.33579 -4.04452,9.30379 -2.96105,10.30356 6.763,6.2406 z m 15.41701,-7.42194 c 4.52402,-2.85589 4.50988,-2.41351 0.34838,-10.90102 -3.96562,-8.08802 -7.6307,-13.25017 -8.86562,-12.48696 -1.28989,0.79721 -1.06613,7.15457 0.39874,11.32874 0.70132,1.99843 1.57542,6.05928 1.94245,9.02412 0.75848,6.12689 1.0508,6.27055 6.17605,3.03512 z m -77.09038,-5.70479 c 32.02591,-10.75814 49.60066,-37.71549 45.21459,-69.35323 -1.69263,-12.20932 -13.59818,-38.79828 -20.56111,-45.91958 -1.59183,-1.62804 -2.89423,-3.49821 -2.89423,-4.15595 0,-8.6367 -41.34733,-26.25947 -50.10808,-21.3567 -2.94582,1.64856 -1.69016,4.3381 2.52995,5.41903 22.8634,5.85612 37.54594,15.43383 39.93069,26.04757 0.99696,4.43715 0.3894,5.67905 -3.73544,7.63552 -7.87854,3.73691 -6.83971,9.96869 1.48832,8.92817 7.99839,-0.99933 9.34985,0.79209 9.74084,12.91184 0.47543,14.73777 -1.69059,18.20594 -14.78856,23.67895 -9.3988,3.9273 -16.93272,10.19277 -16.93272,14.08182 0,0.58045 -1.47656,2.7804 -3.28125,4.88877 -1.80469,2.10837 -3.28125,4.23056 -3.28125,4.71598 0,1.6023 12.2004,7.1103 18.10696,8.17458 8.52596,1.53625 8.33442,3.40939 -0.96524,9.43925 -13.74045,8.90925 -19.15551,10.16111 -30.26672,6.99707 -9.10119,-2.59166 -13.125,-3.24563 -13.125,-2.13316 0,3.74654 19.69163,11.97993 31.67825,13.2452 0.66523,0.0702 5.72773,-1.39009 11.25,-3.24513 z m 92.66039,-2.76297 c 9.17272,-3.65956 9.70737,-4.82008 4.53163,-9.83661 -9.4547,-9.16384 -21.07341,-30.77743 -30.86448,-57.41529 -3.31136,-9.00898 -6.06887,-15.58357 -8.601,-20.50698 -0.70388,-1.36862 -1.27979,-3.11073 -1.27979,-3.87137 0,-4.02749 -18.34349,-21.29648 -22.62158,-21.29648 -1.27261,0 0.70494,3.35261 4.37137,7.41091 3.16043,3.49821 8.13693,11.59911 12.32686,20.06603 3.05048,6.16437 5.91586,13.90058 13.08775,35.33556 7.08372,21.17147 8.57436,24.97012 13.79577,35.15625 2.11447,4.125 4.85625,9.50391 6.09283,11.95312 2.47805,4.9081 3.5274,5.2523 9.16064,3.00486 z M 42.280091,399.27588 c 1.495923,-1.60139 3.526645,-4.65999 4.512715,-6.79688 0.98607,-2.13689 4.044675,-6.23219 6.796899,-9.10067 2.752224,-2.86849 5.888647,-6.24349 6.969828,-7.5 2.301927,-2.67524 7.822401,-7.57609 17.357803,-15.40958 14.819741,-12.17465 16.91827,-14.67978 16.591533,-19.80617 -0.493378,-7.741 -6.752495,-3.51063 -23.675584,16.00168 -6.938036,7.99956 -25.875933,20.46812 -34.787359,22.90374 -2.743519,0.74984 -2.763752,0.80605 -2.643864,7.34501 0.247195,13.48268 3.543758,18.07323 8.878029,12.36287 z m 42.969257,-2.59538 c 3.601454,-6.72938 -24.861946,-10.63935 -31.644966,-4.34701 -0.988566,0.91705 0.57619,1.28298 7.732404,1.80828 4.934475,0.36221 11.187503,1.4461 13.895618,2.40866 6.370997,2.26443 8.857389,2.29672 10.016944,0.13007 z m 336.026182,-8.39405 c 4.04804,-2.36637 22.15079,-13.79377 26.12592,-16.49204 7.32956,-4.97522 -1.29171,-6.49119 -21.50138,-3.78081 -5.22437,0.70066 -12.42172,-4.30209 -12.48794,-8.68013 -0.0263,-1.73915 -5.9366,-8.70847 -7.38516,-8.70847 -2.62341,0 -14.36861,-12.2857 -21.93011,-22.93931 -3.91051,-5.50962 -4.42106,-2.1771 -1.21632,7.93931 5.63974,17.80295 12.58854,32.81042 21.48714,46.40625 8.33777,12.73896 7.71012,12.19173 11.25646,9.81397 1.63329,-1.09509 4.17642,-2.69654 5.65139,-3.55877 z M 87.850352,384.14062 c 2.252228,-2.95744 4.869096,-18.82057 3.267984,-19.81011 -2.155357,-1.33209 -17.432636,13.17682 -16.88251,16.0334 0.577866,3.00061 11.828754,6.12165 13.614526,3.77671 z M 197.19165,365.57715 c 7.17473,-5.64365 8.86431,-24.48746 3.31951,-37.02241 -7.03461,-15.90289 -40.76687,-26.24751 -48.85618,-14.98265 -2.81559,3.92089 -1.0487,4.95299 9.12382,5.32955 15.26064,0.5649 19.82955,7.34836 4.9494,7.34836 -8.9994,0 -12.35936,1.92749 -11.60319,6.65632 2.45337,15.34254 17.60861,30.54412 21.02686,21.09115 5.2694,-14.5723 17.97313,-9.0256 17.97313,7.84742 0,6.19231 0.43346,6.59013 4.06665,3.73226 z m 229.27245,-7.26829 c 1.48407,-2.77301 -0.21667,-4.51842 -3.11572,-3.19753 -3.5062,1.59754 -3.15285,4.88867 0.52488,4.88867 0.92718,0 2.09306,-0.76102 2.59084,-1.69114 z m 67.98302,-2.64644 c 0.72531,-1.89013 -0.99788,-4.09992 -3.19712,-4.09992 -2.15152,0 -4.10607,2.40736 -3.41556,4.20682 0.7449,1.94117 5.85848,1.85851 6.61268,-0.1069 z M 80.630248,339.14062 95.15625,324.84375 95.205,273.75 c 0.02681,-28.10156 -0.275962,-57.84375 -0.672825,-66.09375 -0.396863,-8.25 -0.952156,-31.45313 -1.233988,-51.5625 -0.507709,-36.22553 -1.080886,-42.65625 -3.80201,-42.65625 -2.909742,0 -3.687031,7.01442 -1.970367,17.78102 2.147776,13.47045 -0.108684,22.99268 -6.907347,29.14892 -8.98012,8.13154 -9.386171,23.59705 -1.178694,44.89353 1.28074,3.32321 2.939351,9.83632 3.685801,14.47357 0.746451,4.63724 1.575396,8.78443 1.842099,9.21596 0.266704,0.43154 0.466929,4.04343 0.444947,8.02643 -0.02199,3.983 0.401559,10.09395 0.941204,13.57987 0.829207,5.35642 0.732716,6.98863 -0.623001,10.53852 -1.388827,3.6366 -1.443746,4.77346 -0.409109,8.46883 1.19883,4.28179 0.344679,17.06834 -1.907888,28.56085 -0.454787,2.32031 -1.106056,6.11719 -1.447263,8.4375 -0.914296,6.2175 -6.879215,21.42112 -13.412677,34.18675 -8.997911,17.58089 -7.173822,17.33792 12.076366,-1.60863 z M 55.3125,346.6542 c 0,-0.47723 1.432934,-3.04857 3.184298,-5.71407 1.751364,-2.66551 3.898895,-7.37763 4.772292,-10.47138 0.873396,-3.09375 2.437486,-7.73438 3.475755,-10.3125 17.135158,-42.54832 6.392416,-83.23782 -26.372052,-99.88753 -8.59342,-4.36686 -8.962372,0.54474 -0.564467,7.51438 2.191799,1.81903 1.779967,6.59759 -0.806081,9.3531 -8.257205,8.7983 -8.252707,15.30533 0.01584,22.92582 12.298498,11.3346 14.95037,17.89215 11.641287,28.78658 -2.37729,7.82672 -2.055579,10.10282 1.728686,12.23047 3.52681,1.9829 5.181369,8.96937 4.961957,20.95218 -0.158335,8.64719 -0.307268,9.36922 -4.253192,20.61934 -1.264879,3.60626 -2.085671,6.90328 -1.823983,7.3267 0.541871,0.87676 4.039656,-2.00058 4.039656,-3.32309 z m 385.77966,-19.56904 c 19.20106,-2.35477 37.12932,-19.40747 39.50949,-37.57995 1.206,-9.20778 -1.52379,-9.25751 -5.23328,-0.0953 -3.2413,8.00575 -8.91949,13.40264 -14.10123,13.40264 -2.90416,0 -3.26977,-2.32354 -1.14617,-7.28423 1.66585,-3.89143 2.46691,-8.40116 2.16152,-12.1689 -0.15479,-1.90965 -1.98481,-1.35309 -5.39447,1.64063 -3.78615,3.32428 -6.44893,3.51292 -13.2262,0.93703 -9.55259,-3.63075 -14.39665,-1.33915 -17.98763,8.50944 -4.614,12.65434 -11.46852,13.98036 -16.59211,3.20978 -3.30801,-6.95393 -5.4723,-7.54898 -12.12089,-3.33257 -7.6989,4.88249 -12.83586,2.46731 -15.77047,-7.41461 -1.56786,-5.27956 -2.60636,-6.4396 -8.53447,-9.53333 -2.0625,-1.07636 -4.80469,-2.90795 -6.09375,-4.0702 -8.63971,-7.78974 -28.19762,-15.54203 -48.43734,-19.19943 -12.8338,-2.31911 -36.87516,-1.20147 -36.87516,1.71427 0,0.37123 4.32422,1.16215 9.60937,1.75759 8.64413,0.97389 21.86472,4.50918 35.40173,9.46672 4.93664,1.8079 15.78346,8.58087 26.50311,16.54906 4.16203,3.09375 10.91603,8.08105 15.00888,11.08289 4.09286,3.00183 10.82085,8.33559 14.9511,11.8528 9.43686,8.03614 19.49446,13.83171 27.07067,15.59912 3.22628,0.75264 6.43156,1.83784 7.12285,2.41156 1.24931,1.03684 10.27947,3.30759 13.86354,3.48617 1.03125,0.0514 5.67115,-0.37212 10.31091,-0.94113 z M 261.54227,315.0378 c 6.81428,-12.73261 -2.67475,-28.86521 -18.41265,-31.30391 -6.5013,-1.00742 -12.50462,-4.0047 -12.50462,-6.24319 0,-5.3669 7.95868,-8.52563 16.60545,-6.59057 7.14941,1.59997 10.83798,0.69863 14.29273,-3.49259 8.31765,-10.09074 -1.91127,-25.1588 -13.23838,-19.50124 -13.2308,6.6084 -19.62204,-0.17024 -9.2223,-9.7813 5.32154,-4.91798 5.99901,-9.11919 3.40144,-21.09375 -3.45237,-15.91508 -9.53126,-20.39111 -26.30709,-19.3705 -7.98606,0.48586 -16.7899,7.65175 -9.40075,7.65175 14.78659,0 19.64946,17.84176 7.28233,26.71875 -7.14123,5.1259 -9.04456,11.70306 -4.48237,15.48934 4.52466,3.75513 1.8357,7.76092 -8.94886,13.33126 -20.2361,10.45216 -34.06741,19.54991 -38.58879,25.38235 -1.67223,2.15713 -4.6386,5.77442 -6.59192,8.03842 -5.19389,6.01998 -4.63197,9.02637 0.8297,4.4391 31.65472,-26.58684 58.67648,-32.21233 59.50666,-12.38833 0.4824,11.51939 3.91562,14.78272 16.73715,15.90897 5.40934,0.47515 8.03992,1.24161 11.404,3.32269 2.40502,1.4878 5.2685,2.98938 6.36329,3.33686 1.0948,0.34747 3.0347,2.28581 4.31089,4.30742 2.55916,4.05399 5.37986,4.79863 6.96409,1.83847 z M 161.26882,274.40249 c 16.63259,-28.7862 19.2483,-36.12276 18.47522,-51.81959 -0.56003,-11.3713 -0.81811,-12.11146 -7.24404,-20.77606 -6.25338,-8.43192 -10.48947,-7.80722 -5.99501,0.8841 1.70477,3.29665 1.92178,12.84705 0.35831,15.76842 -1.18634,2.2167 -2.90029,2.33464 -6.54415,0.45033 -4.52286,-2.33887 -4.68956,1.33397 -0.44662,9.84031 5.50566,11.03788 7.32987,18.61816 5.69713,23.67365 -0.82894,2.56667 -1.50716,5.09021 -1.50716,5.60788 0,0.51767 -2.40416,4.37157 -5.34258,8.56422 -9.44765,13.48028 -9.65742,13.85914 -9.65742,17.44132 0,7.28996 4.4626,3.76757 12.20632,-9.63458 z m -3.71443,-17.67294 c 2.46545,-6.59254 2.13259,-11.53437 -1.34177,-19.92074 -5.73246,-13.83693 -6.835,-11.97352 -7.04674,11.90981 -0.19706,22.22844 2.21136,24.52847 8.38851,8.01093 z M 435,246.0645 c 17.03333,-10.32818 21.52522,-29.60652 12.88108,-55.28325 -11.09261,-32.94969 -66.44174,-51.63277 -92.78401,-31.31919 -2.20183,1.69791 -4.1791,3.21667 -4.39395,3.37502 -1.38652,1.02196 1.30774,0.89704 6.9637,-0.32286 24.51619,-5.28779 49.84609,5.12883 58.27086,23.9632 7.41205,16.57033 8.40165,28.65734 3.2307,39.46008 -5.15153,10.76215 -2.5254,12.32773 6.75571,4.02742 10.63409,-9.5103 12.29274,1.45724 1.89207,12.51101 -5.16398,5.48825 -7.81616,8.61101 -7.81616,9.203 0,1.06361 10.41658,-2.83528 15,-5.61443 z m -163.89509,-2.54942 c 0.68137,-0.64483 4.4029,-3.24021 8.27009,-5.76751 3.86719,-2.52729 8.29688,-5.75118 9.84375,-7.16419 24.9213,-22.76456 46.51806,-28.69548 69.47598,-19.07956 13.52678,5.66571 31.19896,3.43581 23.21618,-2.92944 -6.05014,-4.8242 -2.58618,-16.38688 4.90919,-16.38688 6.87678,0 2.98409,-4.94308 -7.35927,-9.34508 -16.8083,-7.1534 -34.35726,-1.93969 -53.67958,15.94794 -2.57813,2.3867 -7.14787,5.99072 -10.15498,8.00892 -3.00712,2.01821 -6.00836,4.05302 -6.66945,4.5218 -4.34017,3.07765 -5.53839,-4.63987 -1.51172,-9.7366 1.02799,-1.30115 5.15227,-7.79502 9.1651,-14.43081 20.77648,-34.35696 44.43968,-47.37542 86.24213,-47.44666 10.69241,-0.0182 15.04127,-0.40485 33.08517,-2.9414 53.59293,-7.5339 76.70655,-53.106828 46.69133,-92.060888 -9.49707,-12.325398 -29.37809,-17.148325 -47.38105,-11.494147 -6.87682,2.159802 -13.16578,7.987159 -6.58209,6.098982 8.94548,-2.565532 22.80245,0.364189 27.36418,5.785493 6.65526,7.909339 4.82192,13.96745 -4.22693,13.96745 -9.41142,0 -13.11376,3.441952 -7.50847,6.980414 7.75989,4.898607 9.24269,12.873026 3.36178,18.079586 -6.06905,5.37313 -3.83172,9.620172 6.05567,11.495281 8.36168,1.585753 9.59311,4.389009 4.82158,10.975909 -7.58093,10.46517 -12.55253,13.84781 -25.87725,17.60671 -5.07707,1.43224 -4.70016,1.59644 -8.51682,-3.71034 C 420.49446,115.422 412.5,118.90467 412.5,125.56061 c 0,7.45381 -0.76857,7.89027 -15.13995,8.59765 -17.22373,0.84778 -33.5918,3.29393 -36.8913,5.51328 -0.51563,0.34682 -3.04688,1.40122 -5.625,2.34309 -4.96584,1.81417 -10.36373,5.18984 -15,9.3805 -8.08635,7.30915 -14.06939,13.50942 -16.06835,16.65174 -4.44108,6.98132 -6.35225,3.91253 -5.82288,-9.34994 l 0.32873,-8.23602 5.39062,-7.37918 c 6.85722,-9.38679 6.87531,-10.73447 0.22681,-16.89256 -6.95625,-6.44313 -7.02746,-9.10781 -0.46118,-17.25648 2.57812,-3.19942 4.6875,-6.23241 4.6875,-6.73999 0,-0.50757 -2.10938,-3.252091 -4.6875,-6.09895 -6.29235,-6.948228 -6.39231,-10.0255 -0.52709,-16.226447 l 4.16041,-4.398553 11.49646,0 11.49647,0 2.02759,-2.995531 c 1.11518,-1.647543 2.28848,-4.62697 2.60733,-6.620952 1.997,-12.48859 22.13502,-15.25429 28.58157,-3.925314 4.31459,7.582316 5.38751,-4.965503 1.212,-14.174371 -8.62323,-19.018145 -34.10652,-22.360319 -57.11307,-7.490471 -21.91939,14.167187 -31.18167,47.822104 -20.93714,76.076039 5.00282,13.79755 5.74505,19.03187 2.91359,20.54722 -2.43672,1.3041 -3.33565,0.68913 -5.66399,-3.87478 -12.2602,-24.03198 -45.55776,-39.471459 -76.49347,-35.468646 -24.32448,3.147376 -49.07316,25.607586 -49.07316,44.535446 0,1.35779 3.55646,0.0854 4.71491,-1.68677 10.3233,-15.79281 30.62077,-22.4183 35.18849,-11.48621 0.72501,1.73518 1.74646,3.41956 2.2699,3.74307 1.67306,1.034 1.02238,4.03583 -1.26478,5.83491 -9.42679,7.41512 -3.40249,13.26633 9.3151,9.04745 5.70567,-1.89278 9.41404,-4.5468 17.41037,-12.46033 19.71653,-19.51237 45.85819,-16.09071 55.74312,7.29617 8.27116,19.56885 8.78162,30.92743 2.28471,50.83859 -2.09192,6.41115 -8.75457,19.9141 -11.56434,23.43705 -1.13643,1.42486 -3.33185,4.34792 -4.87873,6.49567 -3.21211,4.45984 -15.35469,15.69894 -20.38427,18.86757 -1.21753,0.76705 -0.0588,2.68294 1.62264,2.68294 0.70617,0 1.84143,-0.52759 2.52279,-1.17242 z M 76.498079,235.91384 C 74.90619,225.3307 69.497513,206.45257 66.119062,199.6875 c -8.199323,-16.41845 -7.013215,-32.08104 3.26412,-43.1028 6.848238,-7.34428 7.053818,-8.07732 6.777232,-24.16551 -0.191979,-11.16693 0.06944,-15.05412 1.193313,-17.74392 3.235769,-7.74428 -9.944569,-5.74009 -18.0985,2.75205 -12.709234,13.2364 -13.999633,33.84233 -3.939958,62.91582 4.322219,12.49166 4.484992,15.12561 0.934731,15.12561 -8.046635,0 -23.361528,-62.2878 -17.847936,-72.59003 0.550399,-1.02843 1.826996,-5.88562 2.836881,-10.79374 2.076853,-10.09367 3.675737,-15.531714 7.733773,-26.30373 4.923263,-13.068746 5.17396,-15.46875 1.615818,-15.46875 -2.410313,0 -4.749333,3.668281 -9.564504,15 -8.473092,19.94003 -10.962125,39.34341 -8.193816,63.87524 1.281608,11.35718 7.96126,31.96418 13.085241,40.36849 1.039518,1.70501 1.891611,3.67212 1.893539,4.37136 0.0019,0.69924 1.269129,2.86933 2.816004,4.82241 1.546875,1.95308 2.8125,3.98539 2.8125,4.51623 0,0.53083 1.371094,2.79044 3.046875,5.02133 6.031259,8.02918 15.703125,25.94483 15.703125,29.08764 0,0.47621 0.738281,1.85249 1.640625,3.05837 2.213721,2.95841 3.473916,0.82514 2.669954,-4.51973 z M 269.98603,225.52145 c 8.46907,-18.94609 9.58014,-23.14544 9.68779,-36.6152 0.0849,-10.62931 -1.82061,-17.06978 -7.2637,-24.55019 -6.62346,-9.10257 -8.44987,-8.76457 -9.22159,1.7066 -0.29008,3.93601 -1.21339,8.48293 -2.0518,10.10424 -1.72272,3.33135 -1.5224,5.24451 1.93753,18.5053 1.88559,7.22687 2.23824,10.82688 2.23824,22.84917 0,15.56731 0.73132,16.81918 4.67353,8.00008 z m 225.0756,-0.55443 c 3.56749,-1.90927 0.87741,-11.21702 -3.24188,-11.21702 -5.01128,0 -6.91498,6.99744 -2.78707,10.24446 2.81393,2.21343 3.50274,2.32455 6.02895,0.97256 z M 161.82662,208.65069 c 0.54389,-1.41733 0.0109,-2.59623 -5.18378,-11.46631 C 150.83593,187.26892 150,187.09823 150,195.82792 l 0,7.46347 3.91875,3.35431 c 4.11926,3.52594 7.04005,4.26649 7.90787,2.00499 z m 327.95016,-15.12391 c 1.97509,-1.97507 1.85546,-3.76954 -0.40178,-6.02678 -3.22463,-3.22463 -7.5,-1.62913 -7.5,2.7989 0,4.23975 4.89168,6.238 7.90178,3.22788 z m -21.55865,-23.76953 c 3.27403,-3.61777 -1.04835,-8.55289 -6.32996,-7.22729 -3.2234,0.80902 -3.22132,3.03454 0.006,6.40311 2.97357,3.10375 4.12518,3.25383 6.32398,0.82418 z M 57.267068,111.58635 c 7.04301,-5.93875 12.014946,-8.14449 20.057072,-8.8981 8.649912,-0.81057 9.322119,-1.79093 4.982372,-7.266425 -1.750456,-2.208567 -4.293054,-5.756584 -5.65022,-7.884484 -1.357164,-2.1279 -4.078003,-4.852117 -6.046306,-6.053817 -1.968305,-1.2017 -3.719361,-2.519285 -3.891236,-2.927966 -0.723216,-1.719654 -4.731917,-0.693799 -5.339117,1.366317 -0.341944,1.160156 -1.86323,4.707412 -3.380635,7.88279 -2.564223,5.365988 -7.337699,22.136055 -7.362912,25.867215 -0.0172,2.54664 1.824429,1.96742 6.630982,-2.08553 z M 285.05672,91.135274 c -0.41245,-1.4381 -2.32525,-6.505748 -4.25068,-11.261442 -2.83642,-7.005746 -3.3976,-9.400696 -2.957,-12.619648 4.21346,-30.782875 -5.74189,-43.107529 -32.11211,-39.754576 -18.24347,2.319642 -23.38236,6.85755 -13.97894,12.344142 7.22805,4.217336 8.53231,6.526458 9.14053,16.182878 0.65038,10.325604 -0.24073,9.275155 14.25331,16.801919 9.54935,4.958983 13.58753,7.671219 18.02991,12.109763 5.01889,5.014548 9.99504,8.656892 11.98719,8.774154 0.35073,0.02064 0.30023,-1.139091 -0.11221,-2.57719 z M 37.067846,74.296875 c 0.731038,-3.483308 6.731676,-15.203708 9.105878,-17.785533 6.265694,-6.813626 -6.745115,-34.248937 -14.791313,-31.189778 -2.197979,0.835669 -2.4203,1.280803 -1.758382,3.520653 0.934624,3.16266 0.920266,7.781694 -0.04175,13.42717 -0.643777,3.777959 -0.321109,5.250742 2.654935,12.118196 3.503937,8.085606 4.187282,13.144474 2.327035,17.22727 -1.120655,2.459582 -0.581078,5.260147 1.013463,5.260147 0.521984,0 1.192543,-1.160156 1.490131,-2.578125 z M 102.59522,54.398204 c 3.47482,-1.321125 2.97085,-2.433536 -1.69422,-3.739678 -4.386828,-1.228234 -13.098553,0.325344 -12.954633,2.310224 0.150495,2.075572 10.335396,3.069428 14.648853,1.429454 z M 153.75,53.90625 c 1.42062,-1.711748 0.32186,-3.313507 -4.08977,-5.961995 -5.80233,-3.483385 -7.99791,-3.412147 -9.5531,0.309962 -0.76026,1.819556 -1.96271,3.308283 -2.67211,3.308283 -0.70938,0 -2.28575,0.829715 -3.50304,1.84381 l -2.21323,1.84381 10.43209,0.03119 c 8.15739,0.02439 10.68656,-0.275439 11.59916,-1.37506 z M 74.063077,48.676154 c 12.08946,-11.539462 24.488751,-15.002957 31.810663,-8.885673 8.00106,6.684689 25.34975,9.495509 18.91958,3.065333 -4.06672,-4.066711 0.10526,-9.646692 7.83113,-10.474061 6.91304,-0.740325 7.22833,-2.448621 1.14384,-6.197523 -21.69137,-13.364933 -56.437485,-3.108868 -67.773496,20.004813 -4.762727,9.711013 -0.784646,10.937287 8.068283,2.487111 z"
     id="path3386"
     inkscape:connector-curvature="0" />
</svg>
