<?xml version="1.0" encoding="UTF-8" standalone="no"?>
<svg xmlns:dc="http://purl.org/dc/elements/1.1/" xmlns:cc="http://creativecommons.org/ns#" xmlns:rdf="http://www.w3.org/1999/02/22-rdf-syntax-ns#" xmlns:svg="http://www.w3.org/2000/svg" xmlns="http://www.w3.org/2000/svg" version="1.1" width="462.5" height="500" id="svg3068">
    <metadata>
        <rdf:RDF>
            <cc:Work>
                <dc:title>Euclid Initial Letter L</dc:title>
                <dc:description>Based on font designed for project c82.net and based on original design by Mary Byfield in 1847 for Byrne's Euclid Book</dc:description>
                <dc:subject>
                    <rdf:Bag>
                        <rdf:li>inital</rdf:li>
                        <rdf:li>letter</rdf:li>
                        <rdf:li>character</rdf:li>
                        <rdf:li>clip_art</rdf:li>
                        <rdf:li>public_domain</rdf:li>
                        <rdf:li>element</rdf:li>
                        <rdf:li>ornament</rdf:li>
                    </rdf:Bag>
                </dc:subject>
                <dc:publisher>
                    <cc:Agent rdf:about="http://www.openclipart.org">
                        <dc:title>Open Clip Art Library</dc:title>
                    </cc:Agent>
                </dc:publisher>
                <dc:creator>
                    <cc:Agent>
                        <dc:title>Jakub Jankiewicz</dc:title>
                    </cc:Agent>
                </dc:creator>
                <dc:rights>
                    <cc:Agent>
                        <dc:title>Jakub Jankiewicz</dc:title>
                    </cc:Agent>
                </dc:rights>
                <dc:date />
                <dc:format>image/svg+xml</dc:format>
                <dc:type rdf:resource="http://purl.org/dc/dcmitype/StillImage" />
                <cc:license rdf:resource="http://web.resource.org/cc/PublicDomain" />
                <dc:language>pl</dc:language>
            </cc:Work>
            <cc:License rdf:about="http://web.resource.org/cc/PublicDomain">
                <cc:permits rdf:resource="http://web.resource.org/cc/Reproduction" />
                <cc:permits rdf:resource="http://web.resource.org/cc/Distribution" />
                <cc:permits rdf:resource="http://web.resource.org/cc/DerivativeWorks" />
            </cc:License>
        </rdf:RDF>
    </metadata>
    <path d="M 15,480 V 250 20 q 0,-6.25 6.25,-6.25 h 420 q 6.25,0 6.25,6.25 v 460 q 0,6.25 -6.25,6.25 h -420 Q 15,486.25 15,480 Z m 286.25,-200 -7.5,-3.75 q -42.5,-30 -78.75,-2.5 -2.5,2.5 -3.75,0 -1.25,-1.25 1.25,-3.75 11.25,-16.25 31.25,-33.75 7.5,-7.5 26.25,-22.5 18.75,-15 32.5,-26.25 13.75,-12.5 25,-25 17.5,-20 25,-31.25 5,-8.75 1.25,-12.5 -2.5,-1.25 -6.25,2.5 -2.5,2.5 -3.75,3.75 l -2.5,2.5 q -17.5,28.75 -45,53.75 -1.25,0 -2.5,2.5 -2.5,2.5 -3.75,1.25 -1.25,-2.5 2.5,-6.25 18.75,-22.5 21.25,-55 2.5,-18.75 0,-36.25 -1.25,-21.25 13.75,-36.25 1.25,0 3.75,-3.75 v -1.25 q 0,-1.25 -2.5,-1.25 -8.75,0 -16.25,6.25 -6.25,6.25 -7.5,15 -5,17.5 -1.25,28.75 2.5,6.25 -1.25,8.75 -1.25,1.25 -6.25,-3.75 -5,-5 -7.5,-2.5 -15,10 -8.75,26.25 2.5,7.5 6.25,2.5 6.25,-8.75 11.25,2.5 7.5,17.5 -5,38.75 -7.5,13.75 -27.5,36.25 l -1.25,1.25 q -1.25,2.5 -2.5,2.5 -2.5,-1.25 0,-6.25 5,-15 3.75,-30 -3.75,-18.75 8.75,-30 5,-3.75 0,-8.75 -5,-5 -11.25,-1.25 -1.25,1.25 -5,7.5 l -1.25,1.25 q 0,2.5 -1.25,3.75 0,0 -2.5,-1.25 -3.75,-1.25 -1.25,-6.25 2.5,-12.5 1.25,-18.75 0,-5 -1.25,-6.25 -2.5,-1.25 -6.25,2.5 -2.5,2.5 -3.75,5 -3.75,3.75 -5,2.5 -2.5,0 -2.5,-5 0,-22.5 6.25,-30 V 82.5 q -1.25,-1.25 -3.75,-1.25 -8.75,1.25 -15,10 -6.25,8.75 -6.25,17.5 1.25,5 1.25,15 0,3.75 -1.25,3.75 -2.5,2.5 -2.5,-1.25 Q 201.25,120 195,130 q -5,7.5 3.75,8.75 8.75,0 13.75,11.25 3.75,5 -2.5,5 -6.25,0 -11.25,10 -2.5,7.5 5,6.25 13.75,-2.5 20,2.5 3.75,1.25 3.75,3.75 0,3.75 -3.75,3.75 -7.5,1.25 -7.5,8.75 v 7.5 l 7.5,-1.25 q 7.5,-5 12.5,2.5 3.75,6.25 1.25,13.75 -2.5,8.75 -12.5,21.25 -8.75,12.5 -11.25,18.75 -2.5,6.25 -6.25,6.25 -2.5,-1.25 -2.5,-7.5 0,-3.75 -2.5,-3.75 -1.25,-1.25 -5,2.5 v 6.25 q 3.75,10 -6.25,32.5 -6.25,22.5 -3.75,37.5 3.75,5 3.75,5 5,0 5,-6.25 v -5 Q 195,298.75 220,276.25 q 8.75,-7.5 23.75,-7.5 18.75,2.5 23.75,10 8.75,15 1.25,32.5 Q 265,315 270,315 q 16.25,5 18.75,-12.5 v -8.75 q 2.5,-6.25 6.25,-2.5 10,7.5 11.25,20 1.25,12.5 -6.25,22.5 -2.5,3.75 0,6.25 5,5 8.75,1.25 1.25,-1.25 3.75,-5 2.5,-2.5 3.75,-2.5 2.5,1.25 2.5,5 0,16.25 13.75,20 3.75,2.5 6.25,0 2.5,-3.75 0,-6.25 0,-2.5 -3.75,-27.5 0,-2.5 1.25,-3.75 2.5,-1.25 5,1.25 12.5,15 23.75,-1.25 1.25,-5 -2.5,-7.5 -8.75,-3.75 -21.25,-18.75 -15,-20 -23.75,-28.75 -2.5,-3.75 1.25,-3.75 3.75,-1.25 11.25,-1.25 38.75,-7.5 56.25,-43.75 3.75,-7.5 5,-7.5 2.5,3.75 -1.25,10 l -1.25,1.25 v 1.25 q -12.5,26.25 -43.75,40 -5,0 -2.5,2.5 1.25,1.25 5,1.25 5,-2.5 12.5,-5 33.75,-8.75 50,-43.75 12.5,-25 17.5,-30 l 1.25,-1.25 q 1.25,-1.25 0,-2.5 H 425 q -12.5,-1.25 -17.5,15 0,5 -3.75,5 -3.75,0 -3.75,-6.25 v -6.25 q 3.75,-15 -8.75,-22.5 -6.25,-3.75 -7.5,-2.5 v 6.25 q 1.25,2.5 1.25,7.5 1.25,6.25 -2.5,17.5 -3.75,11.25 -3.75,13.75 0,11.25 -5,10 -5,0 -1.25,-11.25 2.5,-8.75 -6.25,-12.5 -11.25,-5 -17.5,1.25 -5,2.5 0,6.25 13.75,7.5 8.75,22.5 -3.75,12.5 -17.5,21.25 -13.75,8.75 -30,8.75 -6.25,0 -18.75,-1.25 -11.25,-2.5 -16.25,-2.5 h -3.75 l 1.25,1.25 q 1.25,0 2.5,0 31.25,7.5 51.25,35 l 6.25,10 q -2.5,2.5 -8.75,-7.5 -22.5,-28.75 -50,-33.75 -1.25,0 -6.25,-1.25 -5,-2.5 -7.5,-1.25 1.25,1.25 12.5,5 23.75,10 28.75,18.75 z M 172.5,325 q -7.5,-45 -7.5,-87.5 0,-60 5,-88.75 8.75,-42.5 31.25,-65 25,-25 48.75,-23.75 17.5,2.5 21.25,12.5 3.75,6.25 -1.25,8.75 -5,3.75 -5,-2.5 -2.5,-8.75 -7.5,-3.75 -6.25,3.75 -2.5,11.25 10,11.25 21.25,0 7.5,-7.5 5,-18.75 Q 278.75,55 267.5,48.75 241.25,32.5 210,51.25 192.5,61.25 183.75,67.5 175,73.75 166.25,70 h -8.75 q -1.25,1.25 2.5,8.75 6.25,6.25 0,16.25 -1.25,2.5 -6.25,7.5 -3.75,5 -6.25,10 -2.5,3.75 -2.5,8.75 0,3.75 -3.75,2.5 -2.5,0 -2.5,-3.75 -1.25,-10 -10,-20 -7.5,-8.75 -1.25,-20 1.25,-1.25 3.75,-6.25 2.5,-3.75 -2.5,-6.25 -2.5,-2.5 -5,1.25 -6.25,8.75 -15,0 0,-1.25 -2.5,-2.5 -2.5,-2.5 -2.5,-3.75 -10,-6.25 -7.5,-15 v -3.75 q -2.5,0 -2.5,2.5 Q 90,52.5 80,50 66.25,46.25 55,53.75 q -11.25,7.5 -7.5,25 2.5,8.75 10,10 10,0 13.75,-7.5 Q 75,75 68.75,72.5 q -2.5,-1.25 -5,3.75 v 1.25 q 0,1.25 -1.25,2.5 0,0 -1.25,0 -3.75,0 -3.75,-5 -1.25,-5 2.5,-8.75 5,-5 11.25,0 5,3.75 12.5,13.75 21.25,32.5 27.5,80 7.5,56.25 7.5,113.75 1.25,62.5 -21.25,122.5 -1.25,6.25 -13.75,21.25 -6.25,5 -15,2.5 Q 65,418.75 62.5,410 v -3.75 q 1.25,-1.25 3.75,0 l 1.25,1.25 q 1.25,0 1.25,1.25 0,1.25 1.25,2.5 7.5,2.5 10,1.25 2.5,-2.5 2.5,-8.75 -1.25,-8.75 -10,-11.25 -7.5,-3.75 -13.75,1.25 -12.5,8.75 -8.75,23.75 3.75,13.75 18.75,16.25 16.25,2.5 37.5,-11.25 8.75,-6.25 13.75,-2.5 2.5,2.5 6.25,0 1.25,-2.5 -1.25,-5 -3.75,-5 -3.75,-10 1.25,-11.25 13.75,-28.75 6.25,-6.25 8.75,0 1.25,3.75 6.25,12.5 5,7.5 6.25,11.25 1.25,3.75 0,13.75 -1.25,3.75 0,5 2.5,1.25 7.5,0 10,-3.75 21.25,-3.75 h 45 q 8.75,0 35,-1.25 26.25,-1.25 41.25,0 8.75,0 26.25,2.5 17.5,1.25 27.5,2.5 30,2.5 46.25,25 2.5,6.25 2.5,7.5 0,6.25 -5,3.75 -3.75,0 -1.25,-5 1.25,-2.5 -2.5,-5 -3.75,-3.75 -7.5,0 -3.75,2.5 -3.75,10 2.5,13.75 21.25,11.25 13.75,0 16.25,-13.75 0,-13.75 -8.75,-28.75 -7.5,-10 -2.5,-17.5 v -3.75 h -5 q -21.25,6.25 -33.75,-11.25 -2.5,-3.75 0,-6.25 10,-13.75 27.5,-10 3.75,2.5 5,0 3.75,-1.25 0,-5 -7.5,-7.5 1.25,-23.75 13.75,-25 8.75,-50 -2.5,-11.25 -12.5,-15 -13.75,-2.5 -20,7.5 -6.25,8.75 0,18.75 6.25,8.75 11.25,6.25 6.25,-5 1.25,-12.5 -2.5,-2.5 0,-5 2.5,-2.5 5,0 6.25,3.75 5,10 -1.25,7.5 -7.5,17.5 -38.75,46.25 -92.5,58.75 -48.75,8.75 -115,5 -6.25,-1.25 -7.5,-6.25 Q 176.25,350 172.5,325 Z M 83.75,122.5 h -5 q -17.5,0 -12.5,16.25 3.75,7.5 0,17.5 0,3.75 -2.5,8.75 -2.5,5 -2.5,8.75 -10,32.5 10,56.25 10,10 17.5,2.5 7.5,-6.25 16.25,2.5 6.25,7.5 0,15 -10,12.5 -21.25,1.25 -6.25,-6.25 -12.5,1.25 -8.75,15 -10,21.25 -5,26.25 7.5,50 l 7.5,18.75 Q 85,363.75 62.5,370 q -3.75,2.5 -1.25,5 7.5,7.5 17.5,6.25 10,-1.25 15,-10 8.75,-12.5 -1.25,-35 -3.75,-7.5 0,-7.5 1.25,0 3.75,0 8.75,0 11.25,-10 1.25,-3.75 -7.5,-7.5 -12.5,-5 -12.5,-12.5 -2.5,-30 20,-37.5 5,-1.25 5,-7.5 2.5,-27.5 -12.5,-35 -1.25,0 -1.25,-1.25 -12.5,-10 -12.5,-22.5 1.25,-12.5 12.5,-22.5 6.25,-6.25 2.5,-12.5 -6.25,-6.25 -12.5,0 l -1.25,1.25 q -1.25,1.25 -2.5,0 v -5 Q 88.75,147.5 91.25,140 97.5,127.5 85,112.5 q -3.75,-5 -21.25,-2.5 0,1.25 -2.5,1.25 l -2.5,1.25 q -1.25,-1.25 1.25,-3.75 3.75,-3.75 13.75,-6.25 5,0 5,-1.25 0,-1.25 -2.5,-2.5 L 73.75,97.5 Q 66.25,95 56.25,98.75 47.5,102.5 45,111.25 37.5,125 46.25,135 q 6.25,7.5 11.25,-1.25 l 5,-10 q 5,-8.75 17.5,-5 3.75,0 3.75,3.75 z m 8.75,331.25 h 11.25 q 12.5,0 18.75,-1.25 12.5,-2.5 22.5,3.75 8.75,2.5 2.5,8.75 l -1.25,1.25 q -3.75,1.25 -2.5,2.5 0,1.25 2.5,1.25 2.5,1.25 3.75,1.25 8.75,2.5 15,-2.5 8.75,-5 2.5,-13.75 -3.75,-3.75 -2.5,-5 0,-1.25 6.25,-1.25 28.75,0 42.5,-1.25 36.25,-2.5 63.75,10 11.25,6.25 31.25,3.75 5,0 6.25,-2.5 1.25,-1.25 -3.75,-6.25 -7.5,-5 -15,-7.5 L 295,443.75 q -3.75,-1.25 -2.5,-2.5 0,-2.5 5,-2.5 12.5,-1.25 30,6.25 21.25,11.25 41.25,0 5,0 3.75,-3.75 0,-2.5 -5,-2.5 -7.5,-2.5 -12.5,-2.5 -37.5,-10 -72.5,-6.25 -6.25,1.25 -17.5,3.75 -11.25,1.25 -20,2.5 -8.75,1.25 -17.5,1.25 -6.25,0 -7.5,-1.25 -1.25,-1.25 1.25,-2.5 l 2.5,-2.5 q 5,-6.25 2.5,-8.75 -2.5,-2.5 -8.75,2.5 -2.5,2.5 -17.5,8.75 -35,10 -92.5,12.5 -10,0 -15,1.25 -6.25,0 -6.25,5 0,1.25 6.25,1.25 z m 326.25,-332.5 q -2.5,-3.75 -2.5,-5 0,-2.5 1.25,-3.75 2.5,-1.25 7.5,0 12.5,0 12.5,-10 0,-3.75 0,-6.25 0,-2.5 -2.5,-3.75 -1.25,-1.25 -6.25,-1.25 -7.5,0 -2.5,-7.5 2.5,-7.5 1.25,-11.25 -2.5,-6.25 -6.25,-6.25 -5,2.5 -5,6.25 0,2.5 -1.25,6.25 0,3.75 0,5 1.25,15 -6.25,22.5 -7.5,6.25 -22.5,2.5 -15,-1.25 -21.25,-18.75 -3.75,-13.75 11.25,-22.5 7.5,-2.5 8.75,-6.25 3.75,-7.5 2.5,-8.75 -7.5,-5 -10,2.5 -3.75,6.25 -13.75,3.75 -6.25,-2.5 -11.25,0 -3.75,2.5 -2.5,7.5 2.5,7.5 -7.5,16.25 -11.25,7.5 -5,21.25 5,10 17.5,6.25 7.5,-2.5 7.5,6.25 -2.5,8.75 -1.25,12.5 1.25,3.75 13.75,10 5,1.25 8.75,-5 l 2.5,-3.75 q 1.25,-3.75 3.75,-3.75 2.5,0 5,8.75 6.25,7.5 13.75,7.5 6.25,0 12.5,-8.75 1.25,-2.5 -2.5,-12.5 z m -97.5,111.25 q 7.5,-3.75 7.5,-11.25 0,-8.75 -7.5,-12.5 -8.75,-6.25 -21.25,-2.5 -2.5,2.5 -5,0 0,-1.25 1.25,-2.5 l 15,-13.75 q 15,-12.5 23.75,-17.5 15,-5 23.75,7.5 2.5,5 3.75,5 1.25,0 3.75,-5 7.5,-12.5 -6.25,-23.75 -12.5,-7.5 -22.5,2.5 -52.5,50 -65,58.75 -33.75,26.25 -36.25,30 -10,10 -7.5,11.25 2.5,2.5 12.5,-5 30,-22.5 47.5,-26.25 12.5,-3.75 22.5,2.5 1.25,0 2.5,2.5 2.5,1.25 3.75,1.25 1.25,0 3.75,-1.25 z m -87.5,81.25 q 8.75,-1.25 8.75,-10 -2.5,-10 -5,-12.5 -2.5,-6.25 -6.25,-5 -3.75,1.25 -3.75,7.5 -2.5,17.5 -20,18.75 -6.25,0 -6.25,6.25 0,8.75 5,11.25 12.5,6.25 15,11.25 3.75,5 1.25,20 0,5 3.75,6.25 7.5,0 12.5,-6.25 5,-7.5 2.5,-13.75 v -5 H 245 q 10,5 23.75,-3.75 L 270,337.5 q 2.5,-1.25 2.5,-2.5 -1.25,-2.5 -5,-2.5 -10,0 -20,-6.25 -2.5,-2.5 -13.75,-5 l -6.25,-3.75 q 0,-3.75 6.25,-3.75 z M 392.5,61.25 Q 383.75,72.5 383.75,80 l 3.75,10 q 7.5,2.5 12.5,-2.5 3.75,-3.75 3.75,-5 2.5,-3.75 7.5,-13.75 5,-10 8.75,-17.5 5,-7.5 11.25,-12.5 2.5,-2.5 1.25,-5 h -5 q -25,11.25 -35,27.5 z m -201.25,182.5 q 13.75,0 13.75,-13.75 0,-12.5 -15,-12.5 -11.25,2.5 -11.25,13.75 0,12.5 12.5,12.5 z M 375,96.25 q 5,6.25 18.75,8.75 15,0 17.5,-13.75 0,-3.75 -1.25,-3.75 -2.5,-1.25 -2.5,1.25 -6.25,10 -16.25,8.75 -12.5,-2.5 -13.75,-15 0,-3.75 -1.25,-3.75 L 372.5,82.5 Q 368.75,90 375,96.25 Z M 72.5,243.75 q 0,-2.5 -2.5,-2.5 -1.25,-1.25 -5,-1.25 -3.75,-1.25 -5,-2.5 -7.5,3.75 -7.5,5 2.5,8.75 8.75,6.25 11.25,0 11.25,-5 z m 28.75,-1.25 q 0,-7.5 -7.5,-7.5 -6.25,0 -6.25,7.5 0,6.25 6.25,6.25 7.5,0 7.5,-6.25 z M 252.5,195 q 1.25,-11.25 -7.5,-28.75 -16.25,-38.75 -17.5,-45 0,-3.75 -2.5,-3.75 -2.5,2.5 0,5 6.25,22.5 10,31.25 20,43.75 6.25,68.75 -3.75,3.75 0,5 2.5,0 5,-2.5 7.5,-13.75 6.25,-30 z m 48.75,85 q 17.5,33.75 25,56.25 1.25,1.25 2.5,1.25 V 335 q -2.5,-12.5 -12.5,-35 -7.5,-15 -15,-20 z m -42.5,-15 q -2.5,0 -2.5,1.25 1.25,1.25 2.5,1.25 13.75,2.5 21.25,21.25 l 2.5,2.5 q 1.25,0 1.25,-2.5 0,-8.75 -8.75,-16.25 -7.5,-8.75 -16.25,-7.5 z M 48.75,35 q -1.25,2.5 0,3.75 1.25,0 5,0 0,5 2.5,6.25 2.5,0 2.5,-2.5 0,-5 -5,-3.75 0,-6.25 -2.5,-7.5 -2.5,0 -2.5,3.75 z m -20,-16.25 Q 25,20 27.5,25 q -6.25,-2.5 -6.25,3.75 0,2.5 3.75,2.5 2.5,0 2.5,-1.25 1.25,-2.5 0,-5 5,-2.5 3.75,-6.25 -2.5,-2.5 -2.5,0 z m 108.75,37.5 v -2.5 q 7.5,0 7.5,-5 0,-3.75 -2.5,-3.75 -7.5,0 -5,8.75 -6.25,0 -6.25,5 0,3.75 3.75,3.75 5,-1.25 2.5,-6.25 z M 423.75,195 H 425 l -1.25,1.25 q 0,1.25 0,2.5 2.5,3.75 5,3.75 l 2.5,-1.25 q 1.25,-2.5 -2.5,-5 -1.25,-1.25 -5,-1.25 z M 412.5,377.5 q -2.5,6.25 3.75,6.25 2.5,0 2.5,-2.5 -1.25,-3.75 -6.25,-3.75 z M 58.75,390 q 3.75,-3.75 1.25,-6.25 -1.25,-1.25 -2.5,-1.25 -1.25,0 -1.25,1.25 -2.5,3.75 2.5,6.25 z M 380,336.25 q 0,-2.5 -5,-6.25 -3.75,-5 -5,-5 -3.75,0 -3.75,3.75 2.5,8.75 10,11.25 1.25,1.25 2.5,0 1.25,-2.5 1.25,-3.75 z M 341.25,235 q -2.5,-8.75 -6.25,-10 l -1.25,1.25 v 1.25 q 0,5 2.5,12.5 0,1.25 1.25,2.5 1.25,0 2.5,-1.25 3.75,-1.25 1.25,-6.25 z M 40,443.75 q 2.5,0 6.25,-3.75 5,-5 5,-6.25 0,-3.75 -3.75,-3.75 -2.5,0 -5,3.75 -2.5,3.75 -3.75,5 -2.5,2.5 0,5 z m 15,10 q 0,-2.5 -5,-5 -2.5,0 -5,5 0,3.75 5,3.75 5,0 5,-3.75 z m 382.5,-285 q 3.75,2.5 6.25,-2.5 0,-5 -3.75,-5 -6.25,0 -6.25,3.75 -2.5,3.75 3.75,3.75 z M 366.25,302.5 q 3.75,0 3.75,-5 0,-5 -3.75,-5 -3.75,0 -3.75,6.25 -1.25,3.75 3.75,3.75 z m 56.25,-51.25 q 5,0 5,-5 0,-5 -3.75,-5 -5,0 -5,5 0,3.75 3.75,5 z M 156.25,55 q 2.5,3.75 6.25,3.75 2.5,0 2.5,-3.75 0,-2.5 -3.75,-5 -5,0 -5,5 z m 36.25,-1.25 q 2.5,0 2.5,-5 0,-3.75 -5,-3.75 -1.25,-1.25 -2.5,0 -1.25,1.25 -1.25,3.75 1.25,5 6.25,5 z m -66.25,-30 q 0,5 3.75,5 3.75,0 3.75,-5 0,-3.75 -3.75,-3.75 -3.75,0 -3.75,3.75 z m 277.5,-2.5 q 0,-3.75 -5,-3.75 -5,0 -5,5 0,6.25 5,3.75 5,0 5,-5 z m -47.5,267.5 q 2.5,-3.75 -3.75,-3.75 -3.75,0 -3.75,5 0,3.75 3.75,3.75 3.75,0 3.75,-5 z m 67.5,-8.75 q 3.75,0 3.75,-3.75 0,-3.75 -3.75,-5 -3.75,0 -3.75,3.75 0,5 3.75,5 z M 435,242.5 q 1.25,3.75 5,3.75 3.75,-1.25 3.75,-5 -2.5,-5 -5,-3.75 -3.75,0 -3.75,5 z M 318.75,38.75 q 5,1.25 5,-3.75 0,-5 -3.75,-5 -5,2.5 -5,5 0,3.75 3.75,3.75 z M 427.5,365 q 0,-3.75 -3.75,-3.75 -5,2.5 -5,5 0,3.75 3.75,3.75 5,0 5,-5 z m 5,-215 q 0,2.5 5,2.5 3.75,0 3.75,-3.75 -2.5,-2.5 -3.75,-3.75 -5,0 -5,5 z m -38.75,2.5 q 0,5 3.75,5 5,0 5,-5 0,-3.75 -5,-3.75 -3.75,0 -3.75,3.75 z m -276.25,325 q -2.5,5 2.5,5 5,-2.5 5,-5 0,-3.75 -3.75,-3.75 -3.75,0 -3.75,3.75 z m -35,5 q 6.25,0 3.75,-3.75 0,-3.75 -3.75,-3.75 -3.75,0 -3.75,5 0,2.5 3.75,2.5 z M 35,36.25 Q 32.5,35 32.5,40 q 0,5 3.75,5 3.75,0 3.75,-3.75 0,-5 -5,-5 z M 26.25,92.5 q 2.5,0 2.5,-3.75 0,-5 -3.75,-5 -3.75,0 -3.75,3.75 0,5 5,5 z m 82.5,-70 q 0,2.5 3.75,5 3.75,-2.5 3.75,-5 0,-3.75 -3.75,-3.75 -3.75,0 -3.75,3.75 z m 120,0 q 0,5 3.75,5 3.75,0 3.75,-3.75 0,-5 -3.75,-5 -3.75,0 -3.75,3.75 z M 146.25,20 q 0,5 3.75,5 3.75,0 3.75,-5 0,-3.75 -3.75,-3.75 -3.75,0 -3.75,3.75 z m 292.5,160 q -3.75,0 -3.75,3.75 0,3.75 3.75,5 2.5,-1.25 5,-3.75 0,-5 -5,-5 z M 187.5,21.25 q -1.25,2.5 2.5,5 5,0 5,-5 0,-3.75 -3.75,-3.75 -3.75,0 -3.75,3.75 z M 366.25,460 q 2.5,0 5,-3.75 0,-3.75 -3.75,-3.75 -5,-2.5 -5,3.75 0,3.75 3.75,3.75 z M 195,35 q 0,2.5 3.75,2.5 3.75,0 3.75,-3.75 Q 202.5,30 198.75,30 195,30 195,35 Z m 185,435 q 3.75,-1.25 5,-5 -1.25,-3.75 -5,-3.75 -3.75,0 -3.75,5 0,3.75 3.75,3.75 z M 210,27.5 q 5,0 5,-5 0,-3.75 -5,-3.75 -3.75,0 -3.75,3.75 0,5 3.75,5 z m 62.5,345 q 5,0 5,-5 0,-3.75 -5,-3.75 -3.75,0 -3.75,5 0,3.75 3.75,3.75 z M 38.75,51.25 q 0,3.75 3.75,3.75 3.75,0 3.75,-5 0,-3.75 -2.5,-3.75 -5,0 -5,5 z M 415,253.75 q -1.25,-3.75 -5,-3.75 -3.75,0 -3.75,3.75 0,5 3.75,5 5,0 5,-5 z m 28.75,-51.25 q 2.5,-3.75 -3.75,-3.75 -3.75,0 -3.75,3.75 0,3.75 3.75,3.75 3.75,0 3.75,-3.75 z M 176.25,35 q 0,3.75 3.75,3.75 2.5,0 5,-5 0,-3.75 -3.75,-3.75 -5,0 -5,5 z M 280,21.25 q 0,-3.75 -3.75,-3.75 -3.75,0 -3.75,6.25 0,2.5 3.75,2.5 3.75,0 3.75,-5 z m 125,140 q -3.75,0 -3.75,3.75 0,3.75 5,3.75 3.75,0 3.75,-3.75 0,-3.75 -5,-3.75 z M 421.25,160 q 0,3.75 3.75,3.75 3.75,-1.25 3.75,-5 0,-3.75 -3.75,-3.75 -3.75,0 -3.75,5 z M 260,306.25 q 2.5,0 2.5,-3.75 0,-3.75 -3.75,-3.75 -3.75,0 -3.75,3.75 0,3.75 5,3.75 z m -231.25,10 q 0,3.75 3.75,3.75 3.75,0 3.75,-3.75 0,-3.75 -3.75,-5 -3.75,0 -3.75,5 z m -6.25,15 q 5,0 5,-3.75 0,-2.5 -2.5,-5 -5,0 -5,3.75 0,2.5 2.5,5 z M 320,367.5 q 0,3.75 3.75,3.75 3.75,0 3.75,-3.75 0,-5 -3.75,-5 -3.75,0 -3.75,5 z m -115,8.75 q 0,2.5 3.75,2.5 3.75,0 3.75,-3.75 0,-3.75 -3.75,-3.75 -3.75,0 -3.75,5 z m -167.5,-215 q 2.5,0 2.5,-2.5 1.25,-2.5 -2.5,-5 -3.75,0 -3.75,2.5 0,5 3.75,5 z m 310,317.5 q 0,3.75 3.75,3.75 3.75,0 3.75,-3.75 l -1.25,-1.25 q -1.25,-2.5 -2.5,-2.5 -3.75,0 -3.75,3.75 z M 21.25,172.5 q 0,3.75 3.75,3.75 3.75,0 3.75,-5 0,-3.75 -3.75,-3.75 -3.75,2.5 -3.75,5 z M 215,457.5 q -1.25,2.5 2.5,5 2.5,0 5,-5 0,-3.75 -3.75,-3.75 -3.75,0 -3.75,3.75 z M 171.25,25 q 3.75,0 3.75,-3.75 0,-3.75 -5,-5 -2.5,0 -2.5,3.75 0,5 3.75,5 z m 222.5,372.5 q 2.5,0 3.75,-3.75 0,-5 -3.75,-5 -3.75,-1.25 -3.75,3.75 0,3.75 3.75,5 z m 8.75,-365 q 0,3.75 3.75,3.75 3.75,0 3.75,-5 0,-3.75 -3.75,-3.75 -3.75,2.5 -3.75,5 z M 88.75,396.25 Q 92.5,395 92.5,390 q -2.5,-2.5 -3.75,-2.5 -3.75,0 -3.75,5 -1.25,3.75 3.75,3.75 z M 425,211.25 q -3.75,0 -3.75,3.75 0,3.75 3.75,3.75 3.75,0 3.75,-3.75 0,-3.75 -3.75,-3.75 z M 290,22.5 q 0,5 3.75,5 3.75,0 3.75,-3.75 0,-5 -2.5,-5 -5,0 -5,3.75 z m 126.25,210 q 5,0 5,-3.75 0,-5 -3.75,-5 -3.75,0 -5,3.75 0,5 3.75,5 z M 50,378.75 q 0,-5 -3.75,-5 -2.5,0 -2.5,3.75 -1.25,5 3.75,5 3.75,0 2.5,-3.75 z M 441.25,380 q 3.75,0 3.75,-3.75 -1.25,-3.75 -5,-3.75 -3.75,-2.5 -3.75,2.5 2.5,5 5,5 z m -20,-358.75 q 0,-3.75 -2.5,-3.75 -5,0 -5,3.75 0,3.75 3.75,3.75 1.25,1.25 2.5,0 1.25,-1.25 1.25,-3.75 z m -28.75,240 3.75,-3.75 q 0,-3.75 -3.75,-3.75 -3.75,0 -3.75,3.75 0,3.75 3.75,3.75 z m 32.5,2.5 q 3.75,0 3.75,-3.75 0,-5 -2.5,-5 -3.75,0 -5,3.75 0,3.75 3.75,5 z M 48.75,340 q 0,3.75 3.75,3.75 3.75,0 3.75,-3.75 0,-3.75 -3.75,-3.75 -3.75,0 -3.75,3.75 z m 133.75,6.25 q 0,3.75 3.75,3.75 3.75,0 3.75,-3.75 0,-3.75 -2.5,-3.75 -5,0 -5,3.75 z M 423.75,350 q 0,3.75 3.75,3.75 3.75,0 3.75,-3.75 0,-3.75 -3.75,-3.75 -3.75,0 -3.75,3.75 z m -275,75 q -3.75,0 -3.75,3.75 0,3.75 3.75,3.75 3.75,0 3.75,-3.75 0,-3.75 -3.75,-3.75 z m -20,-388.75 1.25,1.25 q 1.25,2.5 2.5,2.5 3.75,-2.5 3.75,-5 0,-3.75 -3.75,-3.75 -3.75,0 -3.75,5 z M 187.5,367.5 q 0,3.75 3.75,3.75 3.75,-1.25 3.75,-5 0,-6.25 -5,-3.75 -2.5,0 -2.5,5 z m 102.5,0 q 5,0 5,-3.75 0,-3.75 -3.75,-3.75 -3.75,0 -3.75,3.75 0,3.75 2.5,3.75 z m 147.5,31.25 q 5,0 5,-3.75 0,-3.75 -3.75,-3.75 -5,0 -5,3.75 2.5,3.75 3.75,3.75 z M 68.75,20 q 0,3.75 3.75,3.75 3.75,0 3.75,-3.75 0,-3.75 -2.5,-3.75 -5,0 -5,3.75 z M 262.5,422.5 q 0,-3.75 -2.5,-3.75 -3.75,0 -3.75,3.75 -1.25,2.5 2.5,5 3.75,0 3.75,-5 z m 175,-6.25 q 3.75,0 3.75,-3.75 0,-3.75 -5,-3.75 -2.5,0 -2.5,3.75 0,3.75 3.75,3.75 z M 61.25,467.5 q 0,-2.5 -3.75,-3.75 -3.75,0 -3.75,3.75 0,5 3.75,5 3.75,0 3.75,-5 z m 105,-35 q 3.75,0 3.75,-3.75 0,-3.75 -3.75,-3.75 -2.5,0 -2.5,3.75 -2.5,3.75 2.5,3.75 z m -120,-286.25 q -2.5,1.25 -2.5,5 0,3.75 3.75,3.75 3.75,-2.5 3.75,-5 -2.5,-3.75 -5,-3.75 z M 40,372.5 q -1.25,-3.75 -3.75,-3.75 -3.75,1.25 -3.75,6.25 0,2.5 3.75,2.5 Q 40,375 40,372.5 Z M 376.25,41.25 q 0,-3.75 -3.75,-3.75 -2.5,0 -2.5,3.75 0,3.75 2.5,5 3.75,0 3.75,-5 z m -13.75,-20 q 0,-3.75 -3.75,-3.75 -3.75,0 -3.75,3.75 -1.25,3.75 2.5,3.75 5,1.25 5,-3.75 z M 116.25,442.5 q 3.75,0 3.75,-5 0,-3.75 -2.5,-3.75 -3.75,0 -3.75,3.75 -1.25,2.5 2.5,5 z m 126.25,28.75 q 3.75,-1.25 3.75,-6.25 0,-2.5 -2.5,-2.5 -5,0 -5,5 0,3.75 3.75,3.75 z M 331.25,35 q 0,3.75 3.75,3.75 5,0 5,-3.75 0,-3.75 -3.75,-3.75 -2.5,0 -5,3.75 z M 250,21.25 q 0,5 3.75,5 3.75,0 3.75,-3.75 0,-2.5 -3.75,-5 -3.75,0 -3.75,3.75 z M 418.75,392.5 q 0,5 3.75,5 3.75,0 3.75,-3.75 0,-3.75 -3.75,-3.75 -3.75,-2.5 -3.75,2.5 z m -245,-351.25 q -3.75,0 -3.75,3.75 0,3.75 3.75,3.75 3.75,0 3.75,-3.75 0,-5 -3.75,-3.75 z M 426.25,375 q -3.75,0 -3.75,3.75 0,3.75 3.75,3.75 3.75,0 3.75,-3.75 0,-3.75 -3.75,-3.75 z m -155,107.5 q 3.75,0 3.75,-5 0,-3.75 -2.5,-3.75 -3.75,0 -3.75,5 0,3.75 2.5,3.75 z m 106.25,-30 q 0,2.5 2.5,2.5 3.75,0 3.75,-3.75 0,-3.75 -2.5,-3.75 -3.75,0 -3.75,5 z M 172.5,58.75 q 0,3.75 3.75,3.75 3.75,0 3.75,-3.75 Q 178.75,55 176.25,55 172.5,55 172.5,58.75 Z M 151.25,45 q 0,3.75 3.75,3.75 3.75,0 3.75,-5 0,-3.75 -3.75,-3.75 -3.75,0 -3.75,5 z M 375,265 q 0,2.5 2.5,2.5 3.75,0 3.75,-3.75 0,-3.75 -3.75,-3.75 -5,0 -2.5,5 z m -12.5,13.75 q 2.5,0 2.5,-5 0,-3.75 -3.75,-3.75 -1.25,0 -2.5,1.25 -1.25,1.25 0,2.5 0,5 3.75,5 z M 187.5,117.5 q 0,2.5 3.75,2.5 2.5,0 2.5,-3.75 0,-3.75 -3.75,-2.5 -3.75,0 -2.5,3.75 z m 201.25,366.25 q 3.75,0 3.75,-5 0,-3.75 -2.5,-3.75 -3.75,0 -3.75,3.75 0,3.75 2.5,5 z m -37.5,-445 q 3.75,0 3.75,-3.75 0,-3.75 -3.75,-3.75 -2.5,0 -2.5,2.5 -2.5,5 2.5,5 z M 312.5,20 q 0,5 3.75,5 3.75,0 3.75,-3.75 0,-3.75 -3.75,-3.75 -3.75,0 -3.75,2.5 z M 265,38.75 q 2.5,0 2.5,-3.75 0,-3.75 -3.75,-3.75 -3.75,0 -3.75,3.75 1.25,3.75 5,3.75 z M 21.25,402.5 q 0,3.75 3.75,3.75 3.75,0 3.75,-3.75 0,-2.5 -5,-2.5 -2.5,0 -2.5,2.5 z M 143.75,33.75 q 0,3.75 3.75,3.75 2.5,0 2.5,-5 0,-5 -3.75,-2.5 -5,0 -2.5,3.75 z M 241.25,385 q 2.5,0 2.5,-3.75 0,-3.75 -3.75,-3.75 -3.75,0 -3.75,3.75 0,3.75 5,3.75 z m -65,-175 q 2.5,0 3.75,-3.75 0,-3.75 -3.75,-3.75 -3.75,0 -3.75,3.75 0,3.75 3.75,3.75 z M 190,480 q 0,2.5 3.75,2.5 5,0 2.5,-3.75 0,-3.75 -3.75,-3.75 -2.5,0 -2.5,5 z M 35,205 q 3.75,0 3.75,-3.75 0,-3.75 -2.5,-3.75 -2.5,0 -5,3.75 0,3.75 3.75,3.75 z m 397.5,-72.5 q 0,3.75 3.75,3.75 3.75,0 3.75,-3.75 0,-3.75 -3.75,-3.75 -2.5,0 -3.75,3.75 z m -145,7.5 q 5,0 5,-5 -1.25,-2.5 -3.75,-2.5 -3.75,2.5 -3.75,5 0,2.5 2.5,2.5 z M 175,195 q 3.75,0 3.75,-3.75 0,-3.75 -2.5,-3.75 -3.75,0 -3.75,3.75 0,3.75 2.5,3.75 z m 266.25,106.25 q 3.75,1.25 3.75,-2.5 0,-3.75 -2.5,-3.75 -5,-2.5 -5,3.75 0,2.5 3.75,2.5 z M 420,143.75 q 0,3.75 3.75,3.75 3.75,0 3.75,-3.75 0,-3.75 -3.75,-3.75 -3.75,0 -3.75,3.75 z m -118.75,-95 q 0,-3.75 -3.75,-3.75 -3.75,0 -3.75,3.75 0,3.75 3.75,3.75 3.75,0 3.75,-3.75 z m -265,135 q 2.5,0 2.5,-5 0,-2.5 -2.5,-2.5 -5,2.5 -3.75,5 0,2.5 3.75,2.5 z M 247.5,31.25 q 0,-3.75 -3.75,-3.75 -2.5,0 -2.5,5 0,3.75 3.75,3.75 2.5,0 2.5,-5 z M 81.25,450 q 0,-5 -3.75,-5 -3.75,0 -3.75,3.75 0,3.75 3.75,3.75 3.75,0 3.75,-2.5 z m 5,-428.75 q 0,3.75 3.75,3.75 3.75,0 5,-3.75 0,-3.75 -3.75,-3.75 -2.5,0 -5,3.75 z m 41.25,442.5 q 0,1.25 3.75,3.75 3.75,0 3.75,-5 0,-1.25 -2.5,-3.75 -5,0 -5,5 z m 166.25,-315 q 0,-2.5 -3.75,-2.5 -3.75,0 -3.75,3.75 0,3.75 3.75,3.75 3.75,-1.25 3.75,-5 z m -3.75,175 q 0,3.75 3.75,3.75 3.75,0 3.75,-3.75 0,-3.75 -2.5,-3.75 -5,-1.25 -5,3.75 z M 436.25,340 q 0,3.75 3.75,3.75 3.75,0 3.75,-3.75 0,-3.75 -3.75,-3.75 -3.75,0 -3.75,3.75 z M 62.5,343.75 q 0,5 3.75,5 3.75,0 3.75,-3.75 0,-3.75 -3.75,-3.75 -3.75,0 -3.75,2.5 z M 310,362.5 q 1.25,0 3.75,-3.75 0,-3.75 -3.75,-3.75 -2.5,0 -2.5,2.5 0,5 2.5,5 z m -248.75,1.25 q 5,0 5,-5 0,-2.5 -3.75,-2.5 -3.75,0 -3.75,3.75 0,3.75 2.5,3.75 z M 413.75,150 q -3.75,0 -3.75,3.75 0,3.75 3.75,3.75 3.75,0 3.75,-3.75 0,-3.75 -3.75,-3.75 z M 332.5,21.25 q 0,3.75 3.75,3.75 3.75,0 3.75,-5 -3.75,-3.75 -5,-2.5 -2.5,0 -2.5,3.75 z m -21.25,230 q 2.5,0 2.5,-3.75 0,-3.75 -2.5,-3.75 -3.75,0 -3.75,3.75 0,3.75 3.75,3.75 z M 125,55 q 2.5,0 2.5,-5 0,-3.75 -2.5,-3.75 -3.75,0 -3.75,5 0,3.75 3.75,3.75 z M 286.25,38.75 q 2.5,0 2.5,-3.75 0,-3.75 -2.5,-3.75 -3.75,0 -3.75,5 0,3.75 3.75,2.5 z m 10,315 q 2.5,0 3.75,-3.75 -1.25,-3.75 -5,-3.75 -2.5,2.5 -1.25,3.75 0,5 2.5,3.75 z M 386.25,35 q 3.75,0 3.75,-3.75 -2.5,-2.5 -3.75,-3.75 -2.5,0 -2.5,2.5 0,5 2.5,5 z M 43.75,251.25 q -2.5,3.75 2.5,3.75 3.75,0 3.75,-3.75 0,-3.75 -3.75,-3.75 -2.5,0 -2.5,3.75 z m 168.75,220 q -3.75,0 -3.75,3.75 0,3.75 3.75,3.75 2.5,0 2.5,-5 0,-2.5 -2.5,-2.5 z m -188.75,-125 q 0,3.75 3.75,3.75 3.75,0 3.75,-3.75 0,-3.75 -5,-3.75 -2.5,0 -2.5,3.75 z M 205,40 q 0,5 3.75,5 2.5,0 2.5,-2.5 0,-5 -3.75,-5 -2.5,0 -2.5,2.5 z M 55,261.25 q 0,-3.75 -2.5,-3.75 -2.5,0 -2.5,2.5 -1.25,3.75 2.5,3.75 2.5,0 2.5,-2.5 z m 352.5,217.5 q -1.25,3.75 3.75,3.75 2.5,0 2.5,-2.5 0,-5 -3.75,-5 -2.5,0 -2.5,3.75 z M 23.75,367.5 q 5,0 5,-3.75 0,-3.75 -3.75,-3.75 -5,2.5 -5,5 2.5,2.5 3.75,2.5 z M 175,266.25 178.75,265 q 2.5,-6.25 -2.5,-6.25 -2.5,0 -3.75,3.75 0,3.75 2.5,3.75 z M 437.5,432.5 q 1.25,1.25 2.5,0 1.25,-1.25 1.25,-3.75 0,-2.5 -2.5,-2.5 -3.75,0 -3.75,2.5 0,3.75 2.5,3.75 z M 56.25,148.75 q 0,1.25 0,2.5 1.25,1.25 2.5,0 3.75,0 3.75,-3.75 0,-3.75 -3.75,-3.75 -3.75,2.5 -2.5,5 z m 368.75,165 q 0,3.75 3.75,3.75 3.75,0 3.75,-3.75 0,-3.75 -3.75,-3.75 -3.75,0 -3.75,3.75 z m -185,117.5 q 3.75,0 3.75,-5 0,-3.75 -3.75,-3.75 -2.5,1.25 -2.5,5 0,3.75 2.5,3.75 z m 51.25,52.5 q 2.5,0 2.5,-3.75 0,-3.75 -3.75,-3.75 -3.75,0 -3.75,3.75 2.5,3.75 5,3.75 z M 146.25,65 q 2.5,0 3.75,-3.75 -1.25,-3.75 -3.75,-3.75 -3.75,0 -3.75,3.75 0,3.75 3.75,3.75 z M 115,423.75 q -2.5,0 -2.5,3.75 0,3.75 5,3.75 2.5,0 2.5,-3.75 0,-3.75 -5,-3.75 z M 371.25,282.5 q 0,5 3.75,5 3.75,0 3.75,-2.5 0,-2.5 -3.75,-5 -1.25,0 -3.75,2.5 z m -86.25,95 q 0,-3.75 -3.75,-3.75 -3.75,0 -3.75,5 0,2.5 2.5,2.5 5,0 5,-3.75 z m -97.5,43.75 q -3.75,0 -3.75,3.75 0,3.75 3.75,3.75 2.5,0 2.5,-3.75 0,-3.75 -2.5,-3.75 z M 436.25,220 q 0,3.75 2.5,3.75 3.75,0 3.75,-3.75 -1.25,-3.75 -3.75,-3.75 -5,0 -2.5,3.75 z m -392.5,1.25 q 0,2.5 3.75,2.5 5,0 3.75,-5 0,-3.75 -3.75,-1.25 -3.75,0 -3.75,3.75 z m 325,-33.75 q 0,3.75 3.75,3.75 3.75,0 3.75,-3.75 0,-3.75 -3.75,-3.75 -3.75,0 -3.75,3.75 z m 32.5,80 q 0,3.75 5,3.75 3.75,0 3.75,-3.75 0,-2.5 -3.75,-2.5 -3.75,0 -5,2.5 z M 365,31.25 q 0,2.5 2.5,2.5 3.75,0 3.75,-3.75 0,-2.5 -2.5,-2.5 -3.75,0 -3.75,3.75 z m -57.5,447.5 q 0,3.75 3.75,3.75 3.75,0 3.75,-3.75 0,-3.75 -3.75,-3.75 -3.75,0 -3.75,3.75 z m 86.25,-97.5 q 0,3.75 3.75,5 3.75,0 3.75,-3.75 0,-3.75 -3.75,-3.75 -3.75,0 -3.75,2.5 z M 377.5,25 q 2.5,0 2.5,-3.75 0,-3.75 -3.75,-3.75 -2.5,0 -2.5,3.75 0,3.75 3.75,3.75 z m -13.75,447.5 q 3.75,-2.5 3.75,-5 -2.5,-2.5 -5,-2.5 -2.5,0 -2.5,3.75 0,3.75 3.75,3.75 z M 261.25,103.75 q 0,-3.75 -3.75,-3.75 -3.75,0 -3.75,2.5 0,3.75 3.75,3.75 1.25,0 3.75,-2.5 z m 147.5,293.75 q 2.5,0 2.5,-3.75 0,-3.75 -3.75,-3.75 -2.5,0 -2.5,3.75 0,3.75 3.75,3.75 z M 81.25,33.75 Q 85,33.75 85,30 q 0,-3.75 -3.75,-3.75 -3.75,0 -3.75,3.75 1.25,3.75 3.75,3.75 z M 21.25,50 q 1.25,2.5 3.75,2.5 3.75,0 3.75,-3.75 0,-2.5 -3.75,-2.5 -3.75,0 -3.75,3.75 z m 15,340 q -3.75,0 -3.75,3.75 0,3.75 3.75,2.5 3.75,0 3.75,-3.75 0,-5 -3.75,-2.5 z m 82.5,-332.5 q -5,0 -5,3.75 0,3.75 3.75,3.75 2.5,0 2.5,-3.75 0,-3.75 -1.25,-3.75 z m -56.25,400 q 0,2.5 3.75,2.5 3.75,0 3.75,-5 0,-2.5 -3.75,-2.5 -3.75,0 -3.75,5 z M 156.25,33.75 q 0,3.75 3.75,3.75 3.75,0 3.75,-5 0,-2.5 -3.75,-2.5 -3.75,0 -3.75,3.75 z M 282.5,52.5 q 0,2.5 3.75,2.5 2.5,0 2.5,-3.75 0,-3.75 -2.5,-3.75 -3.75,0 -3.75,5 z M 46.25,210 q 2.5,0 2.5,-3.75 0,-3.75 -2.5,-3.75 -2.5,0 -3.75,3.75 0,3.75 3.75,3.75 z m -25,-81.25 q 0,3.75 3.75,3.75 3.75,0 3.75,-3.75 0,-2.5 -3.75,-2.5 -3.75,0 -3.75,2.5 z M 432.5,21.25 q 0,2.5 3.75,2.5 3.75,0 3.75,-2.5 -1.25,-3.75 -3.75,-3.75 -3.75,0 -3.75,3.75 z m -155,405 q 3.75,1.25 3.75,-2.5 -2.5,-2.5 -3.75,-3.75 -2.5,0 -2.5,3.75 0,2.5 2.5,2.5 z m -81.25,-50 q -3.75,0 -3.75,3.75 0,3.75 2.5,3.75 3.75,0 5,-3.75 0,-3.75 -3.75,-3.75 z m 140,88.75 q 2.5,0 2.5,-3.75 0,-3.75 -2.5,-3.75 -3.75,0 -3.75,3.75 0,3.75 3.75,3.75 z M 440,283.75 q 2.5,0 2.5,-3.75 0,-3.75 -2.5,-3.75 -3.75,1.25 -3.75,3.75 0,3.75 3.75,3.75 z m -262.5,195 q 0,-5 -2.5,-5 -3.75,0 -3.75,3.75 0,3.75 3.75,3.75 2.5,0 2.5,-2.5 z m -38.75,2.5 q 2.5,0 2.5,-3.75 0,-3.75 -3.75,-3.75 -2.5,0 -2.5,5 0,2.5 3.75,2.5 z M 250,91.25 q 0,-2.5 -2.5,-2.5 -3.75,0 -3.75,2.5 0,3.75 2.5,3.75 3.75,0 3.75,-3.75 z m 105,51.25 q 0,2.5 2.5,2.5 5,0 5,-2.5 0,-3.75 -3.75,-3.75 -3.75,0 -3.75,3.75 z m -132.5,80 q 2.5,1.25 2.5,-2.5 0,-3.75 -2.5,-3.75 -1.25,0 -3.75,2.5 0,3.75 3.75,3.75 z M 185,145 q 0,-3.75 -2.5,-3.75 -3.75,0 -3.75,2.5 -2.5,3.75 2.5,3.75 3.75,0 3.75,-2.5 z m 252.5,173.75 q 0,3.75 3.75,3.75 2.5,0 2.5,-3.75 0,-3.75 -3.75,-3.75 -3.75,0 -2.5,3.75 z m -110,-237.5 q 0,-2.5 -2.5,-2.5 -3.75,0 -3.75,3.75 2.5,2.5 3.75,2.5 2.5,0 2.5,-3.75 z m 58.75,67.5 q 3.75,0 3.75,-3.75 0,-1.25 -2.5,-3.75 -3.75,0 -3.75,3.75 -2.5,3.75 2.5,3.75 z M 36.25,65 q 2.5,0 2.5,-3.75 0,-3.75 -3.75,-3.75 -2.5,0 -2.5,3.75 0,3.75 3.75,3.75 z m 387.5,110 q 3.75,0 3.75,-3.75 0,-2.5 -3.75,-2.5 -2.5,0 -2.5,3.75 -1.25,1.25 0,2.5 1.25,1.25 2.5,0 z m 12.5,85 q 0,3.75 3.75,3.75 3.75,0 3.75,-3.75 0,-3.75 -3.75,-3.75 -3.75,-1.25 -3.75,3.75 z M 25,72.5 q 3.75,0 3.75,-3.75 0,-2.5 -3.75,-2.5 -2.5,0 -2.5,3.75 -2.5,2.5 2.5,2.5 z M 51.25,170 q 0,-2.5 -3.75,-2.5 -3.75,0 -3.75,3.75 2.5,3.75 3.75,2.5 3.75,0 3.75,-3.75 z m 385,188.75 q 0,3.75 3.75,3.75 3.75,0 3.75,-3.75 0,-3.75 -5,-3.75 -2.5,2.5 -2.5,3.75 z M 27.5,148.75 q 0,-2.5 -3.75,-2.5 -5,0 -2.5,3.75 0,5 3.75,2.5 2.5,0 2.5,-3.75 z M 133.75,437.5 q 3.75,0 3.75,-3.75 0,-2.5 -3.75,-2.5 -2.5,0 -2.5,3.75 0,2.5 2.5,2.5 z m 305,-316.25 q 2.5,0 2.5,-3.75 0,-2.5 -3.75,-2.5 -2.5,0 -2.5,3.75 0,2.5 3.75,2.5 z M 362.5,352.5 q 2.5,0 2.5,-3.75 0,-3.75 -3.75,-3.75 -2.5,0 -2.5,2.5 0,5 3.75,5 z m -147.5,5 q 2.5,0 2.5,-3.75 0,-3.75 -3.75,-3.75 -2.5,0 -2.5,3.75 0,3.75 3.75,3.75 z m 55,-193.75 q 0,3.75 3.75,3.75 3.75,0 3.75,-3.75 0,-1.25 -3.75,-3.75 -2.5,0 -3.75,3.75 z M 203.75,115 q 0,2.5 2.5,2.5 2.5,0 2.5,-3.75 0,-3.75 -2.5,-2.5 -2.5,0 -2.5,3.75 z M 96.25,30 q 0,3.75 3.75,3.75 3.75,0 3.75,-3.75 0,-3.75 -3.75,-3.75 -3.75,0 -3.75,3.75 z m -25,13.75 q 5,2.5 5,-2.5 0,-5 -3.75,-5 -3.75,0 -3.75,3.75 0,3.75 2.5,3.75 z m 75,37.5 q 3.75,0 3.75,-3.75 0,-3.75 -3.75,-3.75 -2.5,0 -2.5,3.75 0,3.75 2.5,3.75 z m 237.5,77.5 q 3.75,0 3.75,-2.5 0,-2.5 -2.5,-5 -3.75,0 -3.75,3.75 0,3.75 2.5,3.75 z M 21.25,250 q 0,3.75 2.5,3.75 3.75,-1.25 3.75,-3.75 0,-3.75 -3.75,-3.75 -2.5,1.25 -2.5,3.75 z M 282.5,352.5 q 0,-3.75 -3.75,-3.75 -2.5,0 -2.5,3.75 0,2.5 2.5,2.5 3.75,0 3.75,-2.5 z M 40,353.75 Q 38.75,350 36.25,350 q -3.75,0 -3.75,3.75 0,3.75 3.75,3.75 3.75,0 3.75,-3.75 z m 222.5,0 q 0,3.75 3.75,3.75 2.5,0 2.5,-3.75 0,-3.75 -2.5,-3.75 -3.75,2.5 -3.75,3.75 z M 25,113.75 q 2.5,0 2.5,-3.75 0,-5 -3.75,-2.5 -2.5,0 -2.5,3.75 0,2.5 3.75,2.5 z m 11.25,-30 Q 40,83.75 40,80 q -2.5,-2.5 -3.75,-2.5 -5,0 -2.5,2.5 0,3.75 2.5,3.75 z m 5,396.25 q 0,2.5 3.75,2.5 2.5,0 2.5,-3.75 0,-3.75 -3.75,-3.75 -2.5,0 -2.5,5 z m 162.5,-21.25 q 0,-3.75 -3.75,-3.75 -2.5,2.5 -2.5,3.75 0,3.75 3.75,2.5 2.5,0 2.5,-2.5 z M 435,66.25 q 0,2.5 2.5,2.5 2.5,0 5,-2.5 0,-3.75 -3.75,-3.75 -3.75,0 -3.75,3.75 z M 205,337.5 q -3.75,0 -3.75,3.75 0,3.75 3.75,3.75 3.75,0 3.75,-3.75 0,-3.75 -3.75,-3.75 z M 60,445 q 0,2.5 2.5,3.75 2.5,0 2.5,-3.75 0,-3.75 -2.5,-3.75 -2.5,0 -2.5,3.75 z m 26.25,-3.75 q 0,3.75 2.5,3.75 2.5,0 3.75,-3.75 0,-3.75 -3.75,-3.75 l -1.25,1.25 z m 341.25,-385 q 0,2.5 2.5,2.5 3.75,0 3.75,-3.75 0,-2.5 -3.75,-2.5 -2.5,0 -2.5,3.75 z M 25,465 q 1.25,1.25 2.5,0 1.25,-1.25 1.25,-2.5 0,-3.75 -3.75,-3.75 -2.5,0 -2.5,3.75 0,2.5 2.5,2.5 z M 207.5,212.5 q 0,3.75 2.5,3.75 2.5,0 2.5,-3.75 0,-3.75 -2.5,-3.75 -2.5,0 -2.5,3.75 z M 27.5,270 q 1.25,-1.25 0,-2.5 -1.25,-1.25 -2.5,-1.25 -3.75,0 -3.75,3.75 0,3.75 3.75,3.75 2.5,0 2.5,-3.75 z m 91.25,193.75 q 0,-3.75 -3.75,-5 -2.5,1.25 -2.5,5 0,3.75 2.5,3.75 3.75,-2.5 3.75,-3.75 z M 370,482.5 q 2.5,0 2.5,-5 0,-3.75 -2.5,-3.75 -3.75,0 -3.75,5 0,3.75 3.75,3.75 z M 341.25,195 q 0,-3.75 -2.5,-3.75 -2.5,0 -2.5,3.75 -2.5,2.5 2.5,2.5 2.5,0 2.5,-2.5 z M 380,273.75 q 0,3.75 3.75,3.75 3.75,0 3.75,-2.5 0,-3.75 -3.75,-3.75 -1.25,0 -3.75,2.5 z M 241.25,100 q -2.5,0 -2.5,3.75 0,3.75 2.5,3.75 2.5,0 2.5,-3.75 1.25,-1.25 0,-2.5 Q 242.5,100 241.25,100 Z M 63.75,476.25 q -2.5,0 -2.5,3.75 0,3.75 3.75,3.75 2.5,0 2.5,-3.75 0,-3.75 -3.75,-3.75 z M 35,143.75 q 3.75,-1.25 3.75,-5 0,-2.5 -3.75,-2.5 -3.75,2.5 -2.5,5 0,2.5 2.5,2.5 z M 426.25,337.5 q 2.5,0 2.5,-2.5 0,-3.75 -2.5,-3.75 -3.75,0 -3.75,2.5 0,3.75 3.75,3.75 z m -367.5,-5 q 3.75,0 5,-2.5 0,-3.75 -3.75,-3.75 -1.25,0 -3.75,2.5 0,3.75 2.5,3.75 z M 85,466.25 q 2.5,0 2.5,-3.75 0,-3.75 -2.5,-3.75 -3.75,1.25 -3.75,5 0,2.5 3.75,2.5 z m 340,-42.5 1.25,2.5 q 3.75,0 5,-2.5 0,-1.25 -3.75,-3.75 -2.5,0 -2.5,3.75 z M 201.25,190 q 2.5,0 2.5,-3.75 0,-3.75 -3.75,-3.75 -2.5,0 -2.5,3.75 0,3.75 3.75,3.75 z m -85,-151.25 Q 120,40 120,36.25 q 0,-3.75 -2.5,-3.75 -3.75,-2.5 -3.75,2.5 0,3.75 2.5,3.75 z m 95,143.75 q 2.5,0 2.5,-3.75 0,-2.5 -2.5,-2.5 -3.75,0 -3.75,3.75 0,2.5 3.75,2.5 z M 83.75,42.5 q 0,3.75 3.75,3.75 3.75,0 3.75,-3.75 0,-3.75 -3.75,-3.75 -3.75,0 -3.75,3.75 z M 50,313.75 q -1.25,1.25 0,2.5 1.25,1.25 2.5,1.25 3.75,0 3.75,-3.75 0,-2.5 -2.5,-2.5 Q 50,310 50,313.75 Z m 125,-1.25 q 0,2.5 3.75,2.5 3.75,0 3.75,-3.75 0,-3.75 -3.75,-3.75 -3.75,2.5 -3.75,5 z M 21.25,306.25 q 0,2.5 2.5,2.5 2.5,0 2.5,-3.75 0,-2.5 -2.5,-2.5 -2.5,0 -2.5,3.75 z M 385,435 q 0,-2.5 -2.5,-2.5 -3.75,0 -3.75,2.5 0,3.75 3.75,3.75 2.5,0 2.5,-3.75 z M 258.75,292.5 q 3.75,0 3.75,-3.75 -1.25,-3.75 -5,-3.75 -2.5,2.5 -2.5,5 2.5,2.5 3.75,2.5 z m -13.75,0 q 0,3.75 2.5,3.75 2.5,0 2.5,-2.5 0,-3.75 -2.5,-3.75 -2.5,0 -2.5,2.5 z M 178.75,166.25 q 1.25,0 3.75,-2.5 0,-3.75 -3.75,-5 -3.75,0 -3.75,2.5 0,3.75 3.75,5 z M 53.75,295 q 0,-2.5 -2.5,-2.5 -3.75,0 -3.75,3.75 0,1.25 0,2.5 1.25,1.25 2.5,0 3.75,0 3.75,-3.75 z m 170,-266.25 q -1.25,0 -3.75,2.5 2.5,2.5 3.75,3.75 2.5,0 2.5,-2.5 0,-3.75 -2.5,-3.75 z m 216.25,440 q 2.5,0 2.5,-3.75 0,-5 -3.75,-2.5 -2.5,0 -2.5,3.75 0,2.5 3.75,2.5 z M 38.75,301.25 q 2.5,0 2.5,-2.5 0,-3.75 -2.5,-3.75 -3.75,0 -3.75,2.5 0,3.75 3.75,3.75 z m 137.5,-5 q 0,1.25 3.75,3.75 2.5,-2.5 2.5,-3.75 0,-2.5 -2.5,-2.5 -3.75,-1.25 -3.75,2.5 z m 17.5,-145 q 0,2.5 2.5,2.5 2.5,0 2.5,-2.5 0,-3.75 -2.5,-3.75 -2.5,0 -2.5,3.75 z m 240,327.5 q 0,-1.25 -3.75,-3.75 -2.5,0 -2.5,3.75 0,3.75 2.5,3.75 1.25,0 3.75,-3.75 z M 277.5,147.5 q 0,3.75 3.75,3.75 2.5,0 2.5,-3.75 0,-2.5 -2.5,-2.5 -3.75,0 -3.75,2.5 z m 95,26.25 q 0,2.5 2.5,2.5 2.5,0 2.5,-5 0,-2.5 -2.5,-2.5 -2.5,1.25 -2.5,5 z m -198.75,2.5 q 0,3.75 2.5,3.75 2.5,0 2.5,-2.5 0,-3.75 -2.5,-3.75 -2.5,0 -2.5,2.5 z M 180,465 q 0,3.75 2.5,3.75 2.5,0 2.5,-3.75 0,-2.5 -1.25,-2.5 0,-1.25 -1.25,0 -2.5,0 -2.5,2.5 z m 10,-283.75 q 2.5,0 2.5,-3.75 0,-3.75 -2.5,-3.75 -2.5,0 -2.5,3.75 0,3.75 2.5,3.75 z m -87.5,-3.75 q -2.5,0 -2.5,2.5 0,2.5 2.5,3.75 2.5,-1.25 2.5,-3.75 0,-2.5 -2.5,-2.5 z m 3.75,-131.25 q 2.5,-2.5 2.5,-3.75 0,-5 -3.75,-2.5 -2.5,0 -2.5,3.75 2.5,2.5 3.75,2.5 z M 140,420 q 2.5,0 2.5,-3.75 0,-2.5 -1.25,-2.5 -3.75,0 -3.75,2.5 0,2.5 2.5,3.75 z m 101.25,36.25 q 0,-3.75 -3.75,-3.75 -2.5,0 -2.5,2.5 0,3.75 2.5,3.75 1.25,0 3.75,-2.5 z M 276.25,45 q 0,2.5 2.5,3.75 3.75,0 3.75,-3.75 0,-3.75 -2.5,-3.75 -3.75,0 -3.75,3.75 z M 52.5,23.75 q 3.75,0 3.75,-2.5 0,-3.75 -2.5,-3.75 -3.75,0 -3.75,2.5 0,3.75 2.5,3.75 z M 265,322.5 q -2.5,-2.5 -3.75,-2.5 -2.5,0 -2.5,3.75 0,2.5 3.75,2.5 2.5,0 2.5,-3.75 z m 11.25,5 q 2.5,0 2.5,-3.75 0,-3.75 -2.5,-3.75 -2.5,0 -2.5,3.75 0,2.5 2.5,3.75 z M 357.5,50 q 3.75,2.5 3.75,-2.5 0,-3.75 -3.75,-3.75 -2.5,0 -2.5,2.5 0,3.75 2.5,3.75 z m -30,153.75 q 3.75,0 3.75,-2.5 0,-3.75 -2.5,-3.75 -3.75,0 -3.75,2.5 0,3.75 2.5,3.75 z m -3.75,-70 q 3.75,0 3.75,-3.75 0,-3.75 -2.5,-3.75 -3.75,0 -3.75,3.75 0,3.75 2.5,3.75 z M 100,207.5 q 2.5,1.25 2.5,-2.5 0,-3.75 -2.5,-3.75 -3.75,0 -3.75,3.75 0,2.5 3.75,2.5 z M 35,225 q 2.5,0 2.5,-2.5 0,-3.75 -2.5,-3.75 -3.75,0 -3.75,2.5 0,3.75 3.75,3.75 z m 185,153.75 q 0,2.5 2.5,3.75 3.75,0 3.75,-3.75 0,-3.75 -2.5,-3.75 -3.75,0 -3.75,3.75 z M 36.25,337.5 q 2.5,0 3.75,-3.75 -2.5,-2.5 -3.75,-2.5 -3.75,0 -3.75,3.75 2.5,2.5 3.75,2.5 z M 260,471.25 q 3.75,0 3.75,-3.75 -2.5,-2.5 -3.75,-2.5 -2.5,0 -2.5,3.75 0,2.5 2.5,2.5 z M 173.75,225 q 2.5,0 3.75,-3.75 -2.5,-2.5 -5,-2.5 -2.5,2.5 -2.5,3.75 0,2.5 3.75,2.5 z M 300,375 q 0,5 3.75,2.5 2.5,0 2.5,-2.5 0,-3.75 -3.75,-3.75 -2.5,0 -2.5,3.75 z m 43.75,-150 q 0,3.75 2.5,3.75 2.5,0 3.75,-3.75 -2.5,-2.5 -3.75,-2.5 -2.5,0 -2.5,2.5 z m -75,-118.75 q 2.5,0 2.5,-3.75 0,-2.5 -2.5,-2.5 -3.75,0 -3.75,3.75 0,2.5 3.75,2.5 z m -17.5,266.25 q -1.25,1.25 0,2.5 1.25,1.25 2.5,1.25 2.5,0 2.5,-3.75 0,-2.5 -2.5,-3.75 -2.5,0 -2.5,3.75 z M 240,373.75 q 2.5,0 2.5,-3.75 0,-2.5 -2.5,-2.5 -3.75,0 -3.75,2.5 0,3.75 3.75,3.75 z m 188.75,-140 q 3.75,0 3.75,-2.5 0,-2.5 -3.75,-2.5 -2.5,0 -2.5,2.5 0,2.5 2.5,2.5 z m -15,120 q -2.5,0 -2.5,3.75 0,5 3.75,2.5 2.5,0 2.5,-3.75 0,-2.5 -3.75,-2.5 z m -63.75,5 q 3.75,0 3.75,-2.5 0,-3.75 -3.75,-3.75 -2.5,0 -2.5,3.75 0,1.25 0,2.5 1.25,1.25 2.5,0 z m -147.5,0 q 2.5,0 2.5,-3.75 0,-2.5 -3.75,-2.5 -2.5,1.25 -2.5,3.75 0,2.5 3.75,2.5 z M 408.75,242.5 q 2.5,0 2.5,-2.5 0,-2.5 -3.75,-2.5 -2.5,0 -2.5,2.5 0,2.5 3.75,2.5 z M 327.5,245 q 0,-3.75 -3.75,-3.75 -3.75,1.25 -3.75,3.75 1.25,2.5 3.75,2.5 3.75,0 3.75,-2.5 z M 98.75,476.25 q 0,2.5 3.75,2.5 1.25,0 3.75,-2.5 0,-3.75 -3.75,-3.75 -1.25,0 -3.75,3.75 z M 268.75,120 q 2.5,-1.25 2.5,-3.75 0,-2.5 -3.75,-2.5 -2.5,0 -2.5,3.75 2.5,2.5 3.75,2.5 z m 23.75,128.75 q 2.5,0 2.5,-2.5 0,-2.5 -2.5,-3.75 -2.5,0 -2.5,2.5 0,3.75 2.5,3.75 z M 50,351.25 q 0,2.5 2.5,2.5 3.75,0 3.75,-2.5 0,-3.75 -2.5,-3.75 -3.75,0 -3.75,3.75 z m 52.5,0 q 0,2.5 2.5,2.5 2.5,0 2.5,-3.75 0,-2.5 -2.5,-2.5 -2.5,0 -2.5,3.75 z m 71.25,-100 q 3.75,0 3.75,-3.75 0,-2.5 -2.5,-2.5 -3.75,0 -3.75,2.5 0,3.75 2.5,3.75 z m 13.75,7.5 q 1.25,0 3.75,-3.75 -2.5,-2.5 -3.75,-1.25 -2.5,0 -2.5,2.5 0,2.5 2.5,2.5 z m 135,-160 q 0,3.75 2.5,3.75 2.5,0 2.5,-3.75 0,-3.75 -2.5,-3.75 -2.5,0 -2.5,3.75 z m 32.5,365 q 1.25,0 1.25,-1.25 1.25,-1.25 0,-2.5 0,-2.5 -2.5,-2.5 -2.5,0 -2.5,3.75 0,2.5 3.75,2.5 z m -297.5,-300 q 1.25,-1.25 2.5,-2.5 0,-2.5 -2.5,-2.5 -2.5,0 -2.5,2.5 0,2.5 2.5,2.5 z M 283.75,235 q -3.75,0 -3.75,3.75 0,2.5 2.5,2.5 3.75,1.25 3.75,-2.5 0,-3.75 -2.5,-3.75 z m 38.75,232.5 q -2.5,0 -2.5,3.75 0,3.75 3.75,3.75 2.5,-2.5 2.5,-5 -2.5,-2.5 -3.75,-2.5 z M 45,363.75 q 0,2.5 2.5,2.5 2.5,0 3.75,-2.5 0,-2.5 -3.75,-2.5 -2.5,0 -2.5,2.5 z M 27.5,231.25 q 0,-2.5 -2.5,-2.5 l -3.75,3.75 q 0,1.25 0,2.5 1.25,1.25 2.5,0 3.75,0 3.75,-3.75 z m 6.25,-110 q 3.75,0 3.75,-3.75 0,-2.5 -3.75,-2.5 -2.5,0 -2.5,2.5 0,3.75 2.5,3.75 z m 175,178.75 q 0,3.75 2.5,3.75 2.5,0 2.5,-3.75 2.5,-2.5 -2.5,-2.5 -2.5,0 -2.5,2.5 z M 290,65 q 0,3.75 2.5,3.75 2.5,0 2.5,-3.75 0,-2.5 -1.25,-2.5 Q 290,60 290,65 Z M 32.5,433.75 q 1.25,1.25 1.25,0 1.25,-1.25 1.25,-2.5 0,-2.5 -2.5,-2.5 -3.75,0 -3.75,2.5 1.25,2.5 3.75,2.5 z m 331.25,-1.25 q 3.75,0 3.75,-3.75 0,-2.5 -3.75,-2.5 -2.5,0 -2.5,3.75 0,2.5 2.5,2.5 z m 3.75,-281.25 q 0,2.5 2.5,2.5 3.75,0 3.75,-3.75 0,-2.5 -3.75,-2.5 -2.5,0 -2.5,3.75 z M 70,467.5 q -2.5,0 -2.5,2.5 0,2.5 3.75,2.5 2.5,0 2.5,-2.5 0,-5 -3.75,-2.5 z M 45,193.75 q 3.75,0 3.75,-3.75 0,-3.75 -3.75,-3.75 -2.5,0 -2.5,3.75 0,3.75 2.5,3.75 z m 131.25,85 q 1.25,0 1.25,-2.5 0,-2.5 -2.5,-2.5 -2.5,0 -2.5,3.75 2.5,2.5 3.75,1.25 z m 12.5,-85 q 1.25,1.25 1.25,0 1.25,-1.25 1.25,-2.5 0,-2.5 -2.5,-3.75 -2.5,0 -2.5,2.5 -1.25,1.25 0,2.5 1.25,1.25 2.5,1.25 z M 25,290 q 3.75,0 3.75,-3.75 0,-2.5 -2.5,-2.5 -3.75,0 -3.75,2.5 0,3.75 2.5,3.75 z m 275,126.25 q -2.5,0 -2.5,3.75 0,3.75 2.5,3.75 2.5,0 2.5,-3.75 0,-3.75 -2.5,-3.75 z m 46.25,-137.5 q 0,-3.75 -3.75,-3.75 -2.5,0 -2.5,3.75 0,2.5 2.5,2.5 1.25,0 3.75,-2.5 z M 152.5,91.25 q 0,-2.5 -2.5,-2.5 -2.5,0 -2.5,3.75 0,3.75 2.5,2.5 2.5,0 2.5,-3.75 z m 270,320 q 1.25,1.25 1.25,0 1.25,-1.25 1.25,-2.5 0,-2.5 -2.5,-2.5 -2.5,-2.5 -2.5,1.25 0,3.75 2.5,3.75 z M 188.75,208.75 q 2.5,0 2.5,-3.75 0,-3.75 -2.5,-3.75 -3.75,0 -3.75,3.75 0,3.75 3.75,3.75 z m -150,198.75 q -3.75,0 -3.75,2.5 0,2.5 3.75,2.5 5,0 2.5,-2.5 0,-2.5 -1.25,-2.5 0,-1.25 -1.25,0 z m 400,-360 q 3.75,0 3.75,-2.5 0,-3.75 -2.5,-3.75 -3.75,0 -3.75,3.75 0,2.5 2.5,2.5 z m -305,352.5 q 2.5,0 2.5,-3.75 -1.25,-3.75 -3.75,-2.5 -2.5,0 -2.5,3.75 0,2.5 3.75,2.5 z m 50,-270 q 0,3.75 2.5,5 2.5,0 2.5,-2.5 2.5,-5 -2.5,-5 -2.5,0 -2.5,2.5 z M 46.25,327.5 q 2.5,0 2.5,-3.75 0,-2.5 -2.5,-2.5 -2.5,0 -2.5,2.5 -1.25,1.25 0,2.5 1.25,1.25 2.5,1.25 z m 390,127.5 q 0,-2.5 -2.5,-2.5 -2.5,0 -2.5,2.5 0,2.5 1.25,2.5 3.75,2.5 3.75,-2.5 z M 200,198.75 q 1.25,3.75 3.75,3.75 2.5,0 2.5,-3.75 0,-2.5 -2.5,-2.5 -3.75,0 -3.75,2.5 z m -17.5,83.75 q 0,2.5 2.5,2.5 2.5,0 2.5,-3.75 0,-2.5 -2.5,-2.5 -3.75,0 -2.5,3.75 z M 108.75,195 q 0,-1.25 -2.5,-2.5 -2.5,0 -2.5,2.5 0,3.75 2.5,3.75 2.5,0 2.5,-3.75 z m 5,-143.75 q 2.5,0 2.5,-3.75 0,-2.5 -2.5,-2.5 -2.5,0 -2.5,2.5 0,2.5 2.5,3.75 z m -6.25,232.5 q 0,3.75 2.5,3.75 3.75,0 3.75,-2.5 0,-3.75 -2.5,-3.75 -1.25,0 -3.75,2.5 z M 50,277.5 q -2.5,0 -2.5,2.5 0,2.5 2.5,2.5 2.5,0 2.5,-2.5 0,-2.5 -2.5,-2.5 z m 95,128.75 q 2.5,0 2.5,-2.5 0,-2.5 -2.5,-3.75 -2.5,2.5 -2.5,3.75 0,2.5 2.5,2.5 z M 78.75,93.75 q 1.25,0 3.75,-2.5 0,-3.75 -2.5,-3.75 -3.75,0 -3.75,3.75 0,2.5 2.5,2.5 z M 232.5,480 q 2.5,0 2.5,-2.5 0,-3.75 -2.5,-3.75 -3.75,1.25 -3.75,3.75 2.5,2.5 3.75,2.5 z M 25,215 q 1.25,0 3.75,-3.75 -2.5,-2.5 -3.75,-2.5 -3.75,0 -3.75,2.5 0,3.75 3.75,3.75 z m 198.75,256.25 q 3.75,1.25 3.75,-2.5 0,-2.5 -1.25,-2.5 -3.75,-1.25 -3.75,2.5 0,2.5 1.25,2.5 z M 206.25,87.5 q 0,2.5 2.5,2.5 2.5,0 2.5,-3.75 0,-2.5 -2.5,-2.5 -2.5,0 -2.5,3.75 z M 105,52.5 q -1.25,1.25 -1.25,3.75 0,2.5 3.75,2.5 1.25,0 1.25,-3.75 0,-2.5 -3.75,-2.5 z M 26.25,426.25 q 3.75,0 3.75,-5 -1.25,-1.25 -3.75,-1.25 -2.5,2.5 -2.5,3.75 0,2.5 2.5,2.5 z m 76.25,-90 q -1.25,3.75 2.5,3.75 2.5,0 2.5,-2.5 0,-3.75 -1.25,-3.75 -3.75,0 -3.75,2.5 z M 37.5,455 q 2.5,0 2.5,-2.5 0,-2.5 -2.5,-2.5 -2.5,0 -2.5,2.5 1.25,1.25 2.5,2.5 z M 193.75,268.75 q 0,-2.5 -3.75,-2.5 -2.5,0 -2.5,3.75 0,2.5 0,3.75 1.25,0 2.5,-1.25 3.75,0 3.75,-3.75 z m 146.25,-85 q 2.5,0 2.5,-2.5 0,-1.25 -1.25,-2.5 0,-1.25 -1.25,0 -2.5,0 -2.5,2.5 1.25,1.25 2.5,2.5 z M 203.75,427.5 q 1.25,-1.25 1.25,-2.5 0,-1.25 -2.5,-3.75 -2.5,0 -2.5,3.75 0,2.5 2.5,2.5 1.25,1.25 1.25,0 z M 270,178.75 q 0,2.5 2.5,2.5 2.5,0 2.5,-2.5 0,-2.5 -2.5,-2.5 z m -70,292.5 q 3.75,0 3.75,-2.5 0,-3.75 -2.5,-3.75 -3.75,0 -3.75,3.75 0,1.25 0,2.5 1.25,1.25 2.5,0 z M 43.75,312.5 q 2.5,0 2.5,-2.5 0,-3.75 -2.5,-3.75 -1.25,0 -3.75,2.5 0,1.25 3.75,3.75 z M 100,468.75 q 2.5,0 2.5,-2.5 0,-3.75 -2.5,-3.75 -2.5,0 -2.5,3.75 0,3.75 2.5,2.5 z m 55,8.75 q 0,3.75 2.5,3.75 2.5,0 2.5,-3.75 0,-2.5 -2.5,-2.5 -2.5,0 -2.5,2.5 z M 297.5,470 q 0,3.75 2.5,3.75 2.5,0 2.5,-3.75 0,-2.5 -2.5,-2.5 -2.5,0 -2.5,2.5 z M 428.75,296.25 q 2.5,0 2.5,-2.5 0,-2.5 -1.25,-3.75 -2.5,0 -2.5,3.75 0,2.5 1.25,2.5 z M 58.75,230 q 2.5,0 2.5,-2.5 0,-2.5 -2.5,-2.5 -2.5,0 -2.5,2.5 0,2.5 2.5,2.5 z M 36.25,101.25 Q 40,101.25 40,97.5 40,95 37.5,95 q -1.25,0 -3.75,2.5 0,1.25 2.5,3.75 z M 332.5,70 335,67.5 q -1.25,-3.75 -3.75,-3.75 -2.5,0 -2.5,3.75 0,2.5 3.75,2.5 z M 300,237.5 q 2.5,0 2.5,-2.5 0,-2.5 -2.5,-2.5 -2.5,0 -2.5,2.5 0,2.5 2.5,2.5 z M 102.5,433.75 q -2.5,0 -2.5,2.5 0,2.5 2.5,2.5 2.5,0 2.5,-2.5 0,-2.5 -2.5,-2.5 z m 151.25,27.5 q 1.25,0 3.75,-2.5 0,-3.75 -2.5,-3.75 -3.75,0 -3.75,3.75 0,2.5 2.5,2.5 z m 87.5,-385 q 3.75,0 3.75,-3.75 -2.5,-2.5 -3.75,-2.5 -2.5,0 -2.5,3.75 0,2.5 2.5,2.5 z m -1.25,45 q 2.5,1.25 2.5,-2.5 0,-2.5 -2.5,-2.5 -2.5,0 -2.5,2.5 0,2.5 2.5,2.5 z M 438.75,450 q 2.5,-1.25 2.5,-3.75 0,-2.5 -2.5,-2.5 -2.5,0 -2.5,2.5 0,3.75 2.5,3.75 z m -415,-7.5 q 0,2.5 2.5,2.5 3.75,0 3.75,-3.75 0,-2.5 -2.5,-2.5 -3.75,0 -3.75,3.75 z M 305,35 q 0,-2.5 -3.75,-2.5 -2.5,2.5 -2.5,3.75 1.25,2.5 3.75,2.5 2.5,0 2.5,-3.75 z m 33.75,390 q 0,2.5 2.5,2.5 2.5,-1.25 2.5,-3.75 0,-3.75 -2.5,-1.25 z m -20,25 q -1.25,2.5 2.5,2.5 2.5,0 2.5,-2.5 -2.5,-2.5 -3.75,-2.5 z M 100,150 q 1.25,0 1.25,-3.75 0,-2.5 -2.5,-2.5 -2.5,2.5 -1.25,3.75 0,2.5 2.5,2.5 z M 43.75,426.25 45,425 l 1.25,-2.5 -2.5,-2.5 q -2.5,2.5 -2.5,3.75 0,2.5 2.5,2.5 z m 343.75,-385 q 0,3.75 2.5,3.75 2.5,0 2.5,-3.75 0,-2.5 -2.5,-2.5 -2.5,0 -2.5,2.5 z m -61.25,147.5 q 0,3.75 2.5,3.75 2.5,0 3.75,-3.75 l -2.5,-2.5 q -1.25,0 -3.75,2.5 z M 22.5,192.5 q 0,2.5 2.5,2.5 2.5,0 2.5,-2.5 0,-3.75 -2.5,-3.75 -1.25,0 -2.5,1.25 -1.25,1.25 0,2.5 z m 87.5,18.75 q 1.25,0 1.25,-2.5 0,-2.5 -2.5,-2.5 -2.5,2.5 -2.5,3.75 0,2.5 3.75,1.25 z M 37.5,25 q 0,3.75 2.5,3.75 3.75,0 3.75,-2.5 0,-1.25 -2.5,-3.75 -1.25,0 -3.75,2.5 z m 295,186.25 q 0,2.5 2.5,2.5 2.5,0 2.5,-2.5 0,-2.5 -2.5,-2.5 -2.5,0 -2.5,2.5 z m 13.75,3.75 q 2.5,0 2.5,-2.5 0,-2.5 -2.5,-2.5 -2.5,-2.5 -2.5,1.25 -2.5,3.75 2.5,3.75 z M 222.5,75 q -1.25,0 -1.25,2.5 0,2.5 2.5,2.5 2.5,0 2.5,-2.5 0,-5 -3.75,-2.5 z m 203.75,47.5 q 0,2.5 2.5,2.5 2.5,0 2.5,-3.75 0,-2.5 -1.25,-2.5 -3.75,0 -3.75,3.75 z M 270,462.5 q 0,-2.5 -2.5,-2.5 -2.5,-2.5 -2.5,1.25 0,3.75 1.25,3.75 3.75,2.5 3.75,-2.5 z M 436.25,81.25 q 0,2.5 2.5,2.5 2.5,0 2.5,-2.5 0,-2.5 -1.25,-2.5 -3.75,0 -3.75,2.5 z m -47.5,240 q -2.5,0 -2.5,2.5 0,2.5 2.5,2.5 2.5,0 2.5,-2.5 0,-2.5 -2.5,-2.5 z M 36.25,257.5 q -2.5,0 -2.5,2.5 0,2.5 2.5,2.5 2.5,0 2.5,-2.5 0,-2.5 -2.5,-2.5 z m 75,16.25 q 1.25,0 1.25,-2.5 0,-2.5 -2.5,-2.5 -2.5,0 -2.5,3.75 0,1.25 3.75,1.25 z M 282.5,470 q 1.25,0 1.25,-2.5 0,-2.5 -2.5,-2.5 -2.5,0 -2.5,2.5 0,5 3.75,2.5 z M 40,465 q -2.5,0 -2.5,2.5 0,2.5 3.75,3.75 2.5,0 2.5,-2.5 Q 43.75,465 40,465 Z M 195,101.25 q 0,3.75 2.5,3.75 2.5,0 2.5,-2.5 0,-2.5 -1.25,-2.5 -3.75,-2.5 -3.75,1.25 z m 45,180 q 2.5,0 2.5,-2.5 0,-2.5 -2.5,-2.5 -2.5,0 -2.5,2.5 z M 107.5,300 l 2.5,2.5 q 2.5,0 2.5,-2.5 0,-2.5 -2.5,-2.5 -2.5,0 -2.5,2.5 z m 178.75,36.25 q -2.5,0 -2.5,2.5 0,2.5 2.5,2.5 1.25,0 2.5,-1.25 0,-1.25 -2.5,-3.75 z M 222.5,285 q 0,-1.25 -2.5,-1.25 -2.5,0 -2.5,2.5 0,3.75 3.75,1.25 1.25,0 1.25,-2.5 z m -35,-117.5 q 2.5,0 2.5,-3.75 -2.5,-2.5 -3.75,-2.5 -2.5,2.5 -2.5,3.75 2.5,2.5 3.75,2.5 z m 96.25,-1.25 q 2.5,0 2.5,-3.75 0,-3.75 -2.5,-1.25 -2.5,0 -2.5,2.5 z M 296.25,310 q 2.5,0 2.5,-2.5 0,-2.5 -1.25,-2.5 -2.5,0 -2.5,2.5 0,2.5 1.25,2.5 z m -250,-43.75 q -2.5,0 -2.5,2.5 0,2.5 2.5,2.5 2.5,0 2.5,-1.25 0,-3.75 -2.5,-3.75 z M 43.75,395 q 0,2.5 2.5,2.5 2.5,0 2.5,-2.5 0,-2.5 -2.5,-2.5 z m 92.5,-7.5 q 0,1.25 1.25,2.5 2.5,0 2.5,-3.75 0,-1.25 -1.25,-1.25 -2.5,0 -2.5,2.5 z M 317.5,200 320,197.5 317.5,195 q -2.5,0 -2.5,2.5 0,2.5 2.5,2.5 z M 265,243.75 q 0,2.5 2.5,2.5 2.5,0 2.5,-2.5 -2.5,-2.5 -3.75,-2.5 -1.25,1.25 -1.25,2.5 z M 30,476.25 q 0,-3.75 -3.75,-3.75 -1.25,1.25 -1.25,3.75 0,2.5 2.5,2.5 2.5,0 2.5,-2.5 z m 196.25,-267.5 q 1.25,0 1.25,-2.5 0,-2.5 -2.5,-2.5 -2.5,0 -2.5,2.5 0,2.5 3.75,2.5 z M 37.5,242.5 q 2.5,2.5 2.5,-1.25 0,-2.5 -1.25,-2.5 -2.5,0 -2.5,1.25 -2.5,2.5 1.25,2.5 z m 8.75,-8.75 q 0,3.75 2.5,3.75 2.5,0 2.5,-2.5 0,-3.75 -2.5,-3.75 -2.5,0 -2.5,2.5 z M 287.5,82.5 q 0,2.5 2.5,2.5 2.5,0 2.5,-3.75 0,-1.25 -2.5,-1.25 -2.5,0 -2.5,2.5 z m -265,301.25 q 0,2.5 2.5,2.5 2.5,0 2.5,-2.5 0,-2.5 -2.5,-2.5 -2.5,0 -2.5,2.5 z M 253.75,357.5 q -2.5,-1.25 -2.5,1.25 0,3.75 1.25,3.75 2.5,0 2.5,-2.5 2.5,-2.5 -1.25,-2.5 z m 12.5,25 q 0,-3.75 -2.5,-3.75 -2.5,0 -2.5,2.5 0,2.5 2.5,2.5 1.25,-1.25 2.5,-1.25 z M 340,53.75 q 0,1.25 2.5,3.75 2.5,0 2.5,-2.5 0,-2.5 -1.25,-2.5 -1.25,-1.25 -3.75,1.25 z m -95,15 q 0,-1.25 -1.25,-1.25 -2.5,0 -2.5,2.5 0,2.5 2.5,2.5 2.5,-2.5 1.25,-3.75 z m 80,47.5 q 0,2.5 3.75,2.5 1.25,0 1.25,-2.5 0,-2.5 -1.25,-2.5 -1.25,0 -3.75,2.5 z M 141.25,107.5 q 2.5,0 2.5,-2.5 0,-2.5 -2.5,-2.5 -1.25,0 -1.25,2.5 0,1.25 1.25,2.5 z m 210,83.75 q 1.25,0 1.25,-2.5 0,-2.5 -2.5,-2.5 -1.25,1.25 -1.25,2.5 -2.5,2.5 2.5,2.5 z m -290,-162.5 q -2.5,0 -2.5,2.5 0,2.5 2.5,2.5 2.5,0 2.5,-3.75 0,-3.75 -2.5,-1.25 z M 407.5,177.5 q 0,2.5 2.5,2.5 2.5,0 2.5,-2.5 0,-3.75 -2.5,-3.75 -2.5,0 -2.5,3.75 z m -368.75,98.75 -2.5,-2.5 q -5,0 -2.5,2.5 0,2.5 2.5,2.5 z M 321.25,420 q -2.5,0 -2.5,2.5 0,2.5 2.5,2.5 2.5,0 2.5,-2.5 0,-2.5 -2.5,-2.5 z m -45,-325 q 0,2.5 2.5,2.5 2.5,0 2.5,-2.5 0,-2.5 -2.5,-2.5 -2.5,0 -2.5,2.5 z M 43.75,291.25 q 2.5,0 2.5,-2.5 0,-2.5 -2.5,-2.5 -2.5,0 -2.5,1.25 0,1.25 2.5,3.75 z m 162.5,-188.75 1.25,1.25 q 2.5,0 2.5,-2.5 -1.25,-1.25 -2.5,-1.25 -1.25,0 -1.25,2.5 z m 200,345 q 1.25,1.25 1.25,2.5 0,2.5 -2.5,2.5 -1.25,0 -1.25,-2.5 0,-3.75 2.5,-2.5 z M 461.25,0 V 500 H 1.25 V 0 Z M 8.75,7.5 v 485 h 445 V 7.5 Z" style="font-style:normal;font-variant:normal;font-weight:normal;font-stretch:normal;font-size:medium;line-height:1.25;font-family:'Euclid Initials';-inkscape-font-specification:'Euclid Initials';letter-spacing:0px;word-spacing:0px;fill:#000000;fill-opacity:1;stroke:none;stroke-width:9.375" id="path1134" />
</svg>
