<svg id="svg" version="1.1" xmlns="http://www.w3.org/2000/svg" xmlns:xlink="http://www.w3.org/1999/xlink" width="400" height="255.55555555555554" viewBox="0, 0, 400,255.55555555555554"><g id="svgg"><path id="path0" d="M189.012 3.586 C 131.864 9.115,87.329 70.896,98.047 129.778 C 102.594 154.753,119.140 180.556,140.858 196.538 C 142.791 197.960,143.582 198.874,143.972 200.137 C 144.756 202.672,147.614 205.333,149.552 205.333 C 150.623 205.333,151.699 205.788,153.027 206.802 C 154.979 208.292,156.570 209.046,158.778 209.528 C 160.638 209.934,160.341 210.379,155.793 213.999 C 148.599 219.727,149.250 225.273,157.088 225.021 L 159.881 224.931 160.230 227.243 C 160.740 230.621,160.646 232.371,159.808 235.111 C 157.960 241.149,159.433 248.772,162.782 250.504 C 167.909 253.155,172.000 248.162,172.000 239.254 L 172.000 234.667 173.222 234.661 C 173.894 234.657,174.850 234.546,175.345 234.412 C 176.104 234.209,176.330 234.482,176.774 236.143 C 179.228 245.318,188.420 242.575,187.847 232.839 L 187.621 229.011 190.459 228.746 C 194.582 228.361,196.889 227.076,196.889 225.163 C 196.889 223.688,196.906 223.676,199.414 223.381 C 203.449 222.907,208.000 218.157,208.000 214.420 C 208.000 214.040,209.003 213.751,211.000 213.556 C 238.638 210.860,259.053 202.067,276.622 185.293 C 290.789 171.767,301.482 152.521,303.762 136.444 L 304.045 134.444 301.689 136.974 C 296.740 142.288,286.278 150.164,279.874 153.397 C 276.706 154.996,276.592 154.964,272.460 151.311 C 270.879 149.914,268.798 148.436,267.835 148.027 L 266.085 147.284 265.976 143.753 C 265.414 125.468,251.175 118.651,228.024 125.582 C 225.933 126.208,223.872 126.822,223.444 126.946 C 222.829 127.124,222.667 126.898,222.667 125.868 C 222.667 125.151,222.242 124.024,221.723 123.364 L 220.778 122.164 221.977 120.913 C 227.105 115.560,215.194 112.259,208.556 117.194 C 207.761 117.784,207.109 118.207,207.106 118.134 C 206.580 103.020,201.767 91.917,192.444 84.313 C 188.123 80.788,188.181 80.849,188.869 80.571 C 191.580 79.476,195.658 74.033,196.700 70.117 C 201.827 50.858,178.544 33.707,164.277 46.234 C 156.729 52.861,156.763 67.154,164.346 75.218 C 165.759 76.720,165.744 76.735,161.968 77.514 C 160.275 77.864,158.032 78.393,156.984 78.689 C 154.610 79.360,154.681 79.445,154.141 75.258 C 150.494 46.957,167.802 15.725,193.304 4.590 L 196.667 3.122 194.667 3.177 C 193.567 3.207,191.022 3.391,189.012 3.586 M188.582 5.747 C 164.811 16.992,149.301 48.158,153.020 77.205 L 153.373 79.965 151.020 81.153 C 147.897 82.730,145.216 84.553,142.111 87.208 L 139.556 89.394 139.556 86.124 C 139.556 63.552,115.042 59.881,107.216 81.280 C 101.085 98.046,114.056 115.310,127.531 108.319 L 129.897 107.092 129.610 108.768 C 126.992 124.075,132.064 139.299,142.658 147.933 C 146.171 150.796,146.998 152.819,145.795 155.614 C 142.512 163.246,147.190 169.079,156.489 168.950 C 158.622 168.920,160.917 168.687,161.589 168.432 C 164.087 167.482,166.641 168.316,166.179 169.930 C 165.958 170.699,165.778 172.179,165.778 173.219 C 165.778 174.605,165.599 175.111,165.111 175.111 C 164.662 175.111,164.444 174.662,164.444 173.733 C 164.444 168.449,154.805 167.895,152.151 173.027 C 150.805 175.629,151.502 179.641,153.404 180.245 C 154.476 180.585,154.437 180.977,153.142 182.886 C 152.547 183.762,151.640 185.745,151.124 187.294 L 150.187 190.109 148.286 189.895 C 145.680 189.601,144.146 190.929,143.420 194.104 L 142.889 196.430 138.444 192.579 C 101.498 160.568,89.213 118.201,104.472 75.424 C 116.748 41.009,148.117 12.693,181.556 5.840 C 190.334 4.041,192.240 4.016,188.582 5.747 M170.567 83.350 C 181.094 88.553,190.609 104.701,190.657 117.444 C 190.668 120.407,190.902 120.540,192.523 118.509 C 195.798 114.404,201.808 114.012,204.320 117.739 C 205.943 120.147,205.709 121.333,203.611 121.333 C 199.951 121.333,194.973 124.226,193.812 127.027 C 193.430 127.950,192.787 128.467,191.568 128.833 C 189.566 129.432,187.111 131.568,187.111 132.710 C 187.111 133.351,187.398 133.229,188.577 132.087 C 190.570 130.156,190.667 130.230,190.667 133.697 C 190.667 138.565,189.679 141.206,187.653 141.753 C 185.799 142.254,184.066 143.336,183.197 144.533 C 182.878 144.973,182.331 145.333,181.983 145.333 C 181.634 145.333,180.395 146.262,179.230 147.397 C 176.949 149.618,176.160 149.817,173.060 148.952 C 171.001 148.378,169.014 148.639,166.535 149.809 C 164.399 150.818,159.887 151.051,158.869 150.205 C 158.200 149.651,158.271 149.544,159.604 149.095 C 160.877 148.666,160.953 148.565,160.158 148.357 C 158.948 148.041,156.095 149.041,154.954 150.182 C 153.691 151.445,154.363 151.859,155.817 150.715 C 156.733 149.995,157.156 149.891,157.618 150.274 C 158.469 150.981,158.368 151.556,157.393 151.556 C 156.937 151.556,155.144 152.266,153.408 153.135 C 149.838 154.920,149.061 154.811,147.533 152.305 C 146.012 149.810,146.652 144.188,148.546 143.401 C 148.918 143.247,148.656 142.820,147.778 142.149 C 138.501 135.068,133.330 124.382,133.188 112.000 C 133.023 97.565,141.514 88.998,148.160 96.895 L 149.229 98.166 149.516 96.305 C 151.421 83.954,160.492 78.371,170.567 83.350 M160.667 103.091 C 159.973 103.405,159.937 103.500,160.504 103.524 C 161.164 103.553,161.170 103.725,160.570 105.444 C 159.671 108.021,160.022 112.625,161.321 115.309 C 162.577 117.902,163.001 117.625,162.050 114.834 C 160.595 110.564,161.346 104.000,163.290 104.000 C 165.500 104.000,171.750 109.397,173.533 112.845 C 174.697 115.096,174.846 114.152,173.712 111.716 C 171.215 106.354,163.998 101.582,160.667 103.091 M147.010 113.262 C 147.462 113.548,147.440 113.946,146.899 115.240 C 145.542 118.488,146.380 125.052,148.494 127.740 C 149.783 129.378,149.949 128.965,148.886 126.765 C 146.688 122.215,146.834 114.222,149.116 114.222 C 150.245 114.222,154.279 117.639,156.200 120.222 C 156.762 120.978,156.863 121.000,156.875 120.368 C 156.920 117.986,150.901 112.884,148.061 112.896 C 147.067 112.900,146.662 113.041,147.010 113.262 M220.681 116.644 C 222.575 117.436,222.615 118.188,220.869 120.177 C 218.439 122.945,213.474 124.779,211.608 123.597 C 211.172 123.321,211.689 123.003,213.386 122.502 C 219.450 120.713,220.826 117.593,215.499 117.713 C 213.026 117.769,211.065 118.622,209.075 120.509 C 208.186 121.351,207.445 121.707,206.964 121.523 C 205.896 121.113,206.033 120.703,207.737 119.206 C 210.744 116.566,217.361 115.257,220.681 116.644 M217.711 118.915 C 218.421 119.542,210.627 122.917,209.482 122.478 C 208.036 121.923,210.500 119.930,213.963 118.854 C 215.508 118.374,217.128 118.400,217.711 118.915 M209.472 124.127 C 212.283 125.414,215.078 127.813,216.969 130.561 C 218.479 132.755,219.128 132.794,218.046 130.626 C 216.989 128.507,217.138 128.512,219.333 130.667 C 221.444 132.738,221.906 132.656,220.463 130.466 L 219.598 129.154 222.354 128.405 C 223.871 127.993,227.711 126.918,230.889 126.015 C 246.012 121.720,256.661 124.581,261.577 134.259 C 265.854 142.678,264.690 150.948,258.333 157.305 L 255.468 160.170 254.809 159.085 C 253.724 157.298,251.069 155.697,246.863 154.295 C 240.760 152.260,239.633 151.675,237.287 149.329 C 235.073 147.115,234.611 147.090,235.740 149.244 C 237.351 152.319,239.892 153.900,246.498 155.937 C 255.935 158.846,256.362 162.318,248.284 170.444 C 246.097 172.644,243.318 175.644,242.107 177.111 C 233.525 187.513,223.123 184.967,224.107 172.705 C 224.449 168.440,229.181 161.333,231.678 161.333 C 231.936 161.333,232.036 161.222,231.900 161.085 C 230.932 160.117,225.396 164.374,223.959 167.192 C 222.973 169.125,222.468 169.228,219.865 168.033 C 206.241 161.778,214.535 142.526,234.667 133.676 C 237.681 132.351,236.118 132.306,232.889 133.626 C 230.596 134.562,232.305 132.945,235.333 131.313 C 237.449 130.172,237.481 130.129,236.000 130.402 C 234.266 130.722,229.872 133.459,229.489 134.459 C 229.353 134.813,228.023 135.843,226.533 136.748 C 225.044 137.652,222.765 139.257,221.468 140.313 C 219.271 142.102,219.108 142.164,219.072 141.227 C 218.887 136.500,218.312 134.222,217.302 134.222 C 217.011 134.222,217.017 134.519,217.318 135.082 C 218.232 136.790,217.751 136.581,216.567 134.756 C 214.949 132.259,213.948 132.287,215.347 134.790 C 215.932 135.835,216.919 138.044,217.542 139.699 L 218.674 142.707 216.454 145.451 C 213.850 148.669,212.077 152.199,211.707 154.906 C 211.370 157.362,211.213 157.420,204.265 157.676 C 198.788 157.878,198.546 157.850,198.883 157.055 C 199.568 155.442,199.666 153.427,199.012 154.402 C 197.373 156.846,195.779 158.247,194.137 158.690 C 191.591 159.375,191.595 159.012,194.164 156.202 C 198.903 151.016,195.162 144.334,187.470 144.250 C 185.050 144.223,184.991 144.196,186.105 143.611 C 188.728 142.234,194.083 143.065,196.556 145.234 C 196.983 145.609,197.333 145.722,197.333 145.485 C 197.333 144.854,194.946 142.674,194.198 142.622 C 193.845 142.598,194.056 142.418,194.667 142.222 C 196.277 141.707,203.449 141.724,205.725 142.249 C 208.356 142.855,208.556 142.439,206.177 141.310 L 204.222 140.382 206.426 140.640 C 208.033 140.828,208.498 140.765,208.141 140.407 C 207.543 139.809,205.428 139.757,200.403 140.217 L 196.583 140.567 195.521 138.394 C 190.521 128.170,199.112 119.384,209.472 124.127 M220.872 124.084 C 222.666 126.010,222.131 127.275,219.333 127.724 L 217.556 128.009 218.805 127.309 C 221.377 125.869,218.228 123.903,215.601 125.309 C 215.018 125.621,214.628 125.630,214.445 125.335 C 214.294 125.089,214.532 124.884,214.974 124.877 C 215.416 124.871,216.578 124.487,217.556 124.024 C 219.844 122.941,219.807 122.941,220.872 124.084 M177.119 125.710 C 175.405 127.697,172.788 128.865,170.000 128.886 C 168.399 128.898,167.964 129.023,168.444 129.333 C 170.681 130.779,176.408 128.968,177.917 126.338 C 179.107 124.264,178.666 123.916,177.119 125.710 M218.448 126.475 C 217.440 127.237,215.937 127.160,215.664 126.333 C 215.537 125.945,216.061 125.782,217.407 125.792 C 219.220 125.805,219.281 125.846,218.448 126.475 M192.672 132.780 C 192.676 135.703,192.860 136.549,193.894 138.389 C 194.563 139.581,195.111 140.599,195.111 140.652 C 195.111 140.704,194.305 141.013,193.320 141.338 C 190.900 142.137,190.541 141.650,191.397 138.729 C 191.849 137.189,192.034 135.203,191.927 133.070 C 191.827 131.099,191.942 129.707,192.214 129.593 C 192.463 129.489,192.667 129.389,192.667 129.370 C 192.667 129.352,192.669 130.886,192.672 132.780 M169.298 131.263 C 166.023 132.611,163.679 134.446,162.143 136.865 C 160.262 139.829,160.633 140.343,162.778 137.744 C 165.164 134.852,168.822 132.591,173.228 131.288 L 176.667 130.270 174.222 130.257 C 172.663 130.248,170.880 130.613,169.298 131.263 M162.282 133.383 C 161.480 135.460,158.007 137.717,155.459 137.818 C 154.687 137.848,154.804 137.961,155.950 138.291 C 158.594 139.051,161.756 137.204,162.698 134.349 C 163.270 132.615,162.905 131.767,162.282 133.383 M171.111 133.950 C 160.253 137.076,157.707 147.304,167.971 146.564 C 174.661 146.082,180.516 140.778,179.376 136.233 C 178.836 134.084,174.657 132.929,171.111 133.950 M300.431 144.500 C 294.659 161.798,284.529 176.480,269.403 189.470 C 261.005 196.682,246.138 204.363,233.586 207.975 C 225.469 210.311,209.796 212.854,209.403 211.899 C 209.156 211.299,211.450 208.557,212.925 207.688 C 213.889 207.120,214.226 206.631,214.091 206.000 C 213.987 205.511,213.635 203.867,213.309 202.346 C 212.583 198.957,212.272 199.236,217.886 198.242 C 223.081 197.323,224.100 196.856,225.378 194.805 L 226.261 193.388 224.898 190.973 C 221.034 184.127,217.091 168.629,219.444 169.539 C 219.872 169.705,220.731 169.943,221.352 170.068 C 222.443 170.289,222.476 170.392,222.303 173.108 C 221.491 185.851,234.113 189.785,242.336 179.352 C 243.308 178.120,246.479 174.667,249.383 171.679 L 254.663 166.247 256.254 167.326 C 268.006 175.301,285.235 167.991,279.380 157.515 C 278.736 156.363,278.262 155.399,278.327 155.373 C 284.688 152.786,292.556 147.472,297.775 142.237 C 302.741 137.256,302.824 137.327,300.431 144.500 M191.679 146.790 C 196.237 149.351,196.216 152.190,191.605 157.086 C 188.999 159.852,187.905 161.391,187.345 163.075 C 186.243 166.394,182.174 167.705,182.815 164.535 C 183.446 161.409,183.726 160.603,184.468 159.778 C 187.131 156.817,184.901 151.610,180.391 150.259 C 178.675 149.745,178.624 149.678,179.238 148.749 C 181.366 145.530,187.670 144.536,191.679 146.790 M268.469 150.172 C 269.555 150.878,271.102 152.073,271.905 152.828 C 272.708 153.584,274.108 154.756,275.015 155.434 C 283.048 161.438,276.867 170.456,265.791 168.891 C 257.054 167.656,252.893 163.665,256.994 160.453 L 258.210 159.501 259.673 160.617 C 261.908 162.321,264.916 163.537,266.889 163.531 L 268.667 163.527 266.315 162.714 C 264.433 162.064,262.205 160.774,259.618 158.838 C 259.531 158.772,260.258 157.757,261.235 156.581 C 263.067 154.376,265.333 150.432,265.333 149.448 C 265.333 148.558,266.342 148.791,268.469 150.172 M169.778 150.929 C 163.682 154.406,162.166 161.490,166.630 165.648 C 167.411 166.376,167.475 166.625,166.984 167.032 C 166.151 167.723,163.291 166.887,161.970 165.566 C 160.732 164.328,160.180 164.641,161.107 166.056 C 163.372 169.513,150.003 167.368,147.379 163.854 C 145.949 161.938,146.398 154.636,147.943 154.673 C 148.946 154.698,149.473 155.518,148.917 156.188 C 148.430 156.775,148.448 156.889,149.030 156.889 C 149.413 156.889,149.865 156.663,150.035 156.387 C 150.542 155.567,156.632 152.931,159.187 152.427 C 160.490 152.170,162.005 151.865,162.554 151.749 L 163.552 151.539 162.667 152.992 C 161.280 155.266,161.609 155.380,163.781 153.378 C 165.772 151.543,167.002 150.868,169.556 150.212 C 171.814 149.631,171.850 149.747,169.778 150.929 M180.789 151.730 C 183.539 153.161,185.191 156.523,184.101 158.471 C 183.705 159.178,183.579 159.112,182.928 157.854 C 181.913 155.891,181.228 156.083,182.068 158.095 C 182.713 159.637,182.692 162.790,182.033 163.449 C 181.887 163.594,181.171 163.140,180.440 162.440 C 178.749 160.820,178.754 161.449,180.453 163.956 C 182.512 166.996,181.696 169.737,178.507 170.488 C 177.102 170.819,177.103 168.371,178.508 167.340 C 178.940 167.023,177.964 166.889,175.214 166.889 C 162.782 166.889,161.437 153.959,173.556 150.939 C 175.035 150.571,179.499 151.059,180.789 151.730 M213.055 163.912 C 213.478 164.719,214.614 166.146,215.579 167.082 C 216.816 168.283,217.334 169.161,217.335 170.059 C 217.342 175.003,219.799 184.077,222.712 189.919 C 225.105 194.719,224.630 195.424,218.161 196.667 C 216.117 197.060,214.019 197.555,213.498 197.768 C 212.642 198.117,212.526 197.978,212.278 196.299 C 211.340 189.970,211.574 172.936,212.671 167.556 C 212.843 166.713,212.732 166.803,212.210 167.926 C 209.664 173.411,209.545 193.261,212.000 202.882 C 212.736 205.765,212.740 206.030,212.064 206.399 C 209.958 207.549,207.713 210.675,206.264 214.474 C 204.461 219.204,202.410 221.518,199.599 221.993 C 197.121 222.411,196.889 222.135,196.885 218.752 C 196.882 217.116,196.592 213.178,196.239 210.000 C 194.548 194.775,194.404 181.752,195.865 176.222 C 196.355 174.368,195.202 176.275,194.388 178.667 C 193.291 181.887,193.267 198.721,194.345 208.444 C 194.738 211.989,195.200 217.337,195.371 220.330 L 195.681 225.771 193.952 226.493 C 187.418 229.223,186.020 227.886,186.002 218.889 C 185.989 212.217,185.605 210.979,181.102 203.095 C 178.565 198.654,178.520 198.514,178.400 194.734 C 178.036 183.326,177.954 182.424,177.123 180.667 C 175.517 177.270,176.328 172.204,178.544 171.788 C 180.298 171.459,183.111 169.011,183.111 167.814 C 183.111 167.276,183.381 167.162,184.181 167.363 C 185.920 167.799,186.945 166.871,188.622 163.337 L 190.206 160.000 192.458 160.000 C 193.697 160.000,195.290 159.701,195.997 159.335 C 196.954 158.840,197.581 158.783,198.448 159.113 C 200.041 159.718,207.373 159.610,209.556 158.949 L 211.333 158.410 211.809 160.427 C 212.071 161.537,212.631 163.105,213.055 163.912 M242.643 161.640 C 238.131 163.868,231.975 171.515,232.010 174.849 C 232.016 175.452,232.449 174.947,233.246 173.404 C 234.907 170.189,239.921 164.814,243.500 162.414 C 246.779 160.214,246.337 159.815,242.643 161.640 M160.813 174.152 C 161.085 176.059,158.323 178.260,157.142 177.078 C 156.165 176.101,156.257 175.674,157.776 174.155 C 159.294 172.638,160.598 172.636,160.813 174.152 M213.093 177.111 C 212.263 179.707,212.681 190.167,213.724 192.889 L 214.661 195.333 214.372 193.333 C 214.213 192.233,213.956 187.833,213.802 183.556 C 213.588 177.647,213.418 176.098,213.093 177.111 M153.963 178.556 C 154.426 179.106,154.688 179.556,154.545 179.556 C 154.097 179.556,152.889 178.181,152.889 177.672 C 152.889 177.404,152.941 177.269,153.005 177.370 C 153.068 177.472,153.499 178.006,153.963 178.556 M174.582 187.712 C 178.891 190.103,177.886 199.071,172.992 201.914 C 167.875 204.887,166.000 192.797,170.909 188.486 C 172.638 186.968,173.075 186.876,174.582 187.712 M172.621 190.450 C 170.424 192.646,171.950 197.390,174.199 195.354 C 175.648 194.043,175.853 194.974,174.440 196.449 C 173.467 197.465,173.340 197.778,173.900 197.778 C 174.970 197.778,176.392 196.062,176.705 194.395 C 177.048 192.567,176.402 191.278,175.952 192.893 C 175.700 193.801,175.636 193.676,175.600 192.200 C 175.528 189.290,174.428 188.643,172.621 190.450 M150.104 196.111 C 151.205 197.518,150.977 200.889,149.782 200.889 C 148.985 200.889,147.857 197.965,148.171 196.714 C 148.480 195.480,149.388 195.197,150.104 196.111 M180.141 204.799 C 185.827 211.082,185.653 224.534,179.812 230.191 C 175.081 234.772,170.616 222.699,173.118 212.089 C 174.598 205.812,177.928 202.354,180.141 204.799 M178.222 207.127 C 178.222 207.380,178.549 208.085,178.947 208.694 C 179.623 209.725,179.619 209.860,178.876 210.681 C 177.957 211.697,178.313 212.402,179.323 211.564 C 179.892 211.092,180.000 211.149,180.000 211.923 C 180.000 212.430,179.672 213.028,179.271 213.253 C 178.845 213.491,178.681 213.886,178.877 214.202 C 179.118 214.592,179.347 214.609,179.695 214.261 C 180.622 213.334,180.889 213.795,180.896 216.333 C 180.900 218.122,181.029 218.689,181.325 218.222 C 181.988 217.177,181.716 210.274,181.023 210.540 C 180.580 210.710,180.563 210.459,180.942 209.372 C 181.207 208.611,181.272 207.641,181.087 207.217 C 180.813 206.590,180.693 206.695,180.451 207.778 L 180.153 209.111 179.561 207.889 C 178.972 206.674,178.222 206.247,178.222 207.127 M159.778 213.333 C 159.075 214.067,158.300 214.667,158.056 214.667 C 157.811 214.667,158.186 214.067,158.889 213.333 C 159.591 212.600,160.366 212.000,160.611 212.000 C 160.855 212.000,160.480 212.600,159.778 213.333 M152.757 220.231 C 152.730 221.184,152.581 221.562,152.377 221.198 C 152.087 220.679,152.323 218.667,152.675 218.667 C 152.744 218.667,152.781 219.371,152.757 220.231 M186.214 236.328 C 185.741 237.064,185.726 237.062,185.966 236.297 C 186.107 235.849,186.257 234.649,186.300 233.630 L 186.378 231.778 186.547 233.661 C 186.641 234.697,186.491 235.897,186.214 236.328 " stroke="none" fill="#000000" fill-rule="evenodd"></path></g></svg>